<?xml version="1.0" encoding="UTF-8"?>
<svg xmlns="http://www.w3.org/2000/svg" xmlns:xlink="http://www.w3.org/1999/xlink" width="226.35pt" height="126.63pt" viewBox="0 0 226.35 126.63" version="1.1">
<defs>
<clipPath id="clip1">
  <path d="M 0 102 L 18 102 L 18 126.628906 L 0 126.628906 Z M 0 102 "/>
</clipPath>
<clipPath id="clip2">
  <path d="M 19 102 L 38 102 L 38 126.628906 L 19 126.628906 Z M 19 102 "/>
</clipPath>
<clipPath id="clip3">
  <path d="M 41 102 L 57 102 L 57 126.628906 L 41 126.628906 Z M 41 102 "/>
</clipPath>
<clipPath id="clip4">
  <path d="M 65 102 L 95 102 L 95 126.628906 L 65 126.628906 Z M 65 102 "/>
</clipPath>
<clipPath id="clip5">
  <path d="M 97 102 L 104 102 L 104 126.628906 L 97 126.628906 Z M 97 102 "/>
</clipPath>
<clipPath id="clip6">
  <path d="M 108 102 L 129 102 L 129 126.628906 L 108 126.628906 Z M 108 102 "/>
</clipPath>
<clipPath id="clip7">
  <path d="M 131 102 L 147 102 L 147 126.628906 L 131 126.628906 Z M 131 102 "/>
</clipPath>
<clipPath id="clip8">
  <path d="M 151 102 L 167 102 L 167 126.628906 L 151 126.628906 Z M 151 102 "/>
</clipPath>
<clipPath id="clip9">
  <path d="M 170 102 L 186 102 L 186 126.628906 L 170 126.628906 Z M 170 102 "/>
</clipPath>
<clipPath id="clip10">
  <path d="M 188 102 L 207 102 L 207 126.628906 L 188 126.628906 Z M 188 102 "/>
</clipPath>
<clipPath id="clip11">
  <path d="M 208 102 L 226.351563 102 L 226.351563 126.628906 L 208 126.628906 Z M 208 102 "/>
</clipPath>
</defs>
<g id="surface1">
<path style=" stroke:none;fill-rule:nonzero;fill:rgb(16.868591%,30.589294%,54.492188%);fill-opacity:1;" d="M 89.511719 52.992188 C 99.082031 62.5625 117.433594 59.726563 130.503906 46.65625 C 143.226563 33.933594 146.246094 16.203125 137.566406 6.445313 C 144.761719 14.707031 142.214844 29.542969 131.570313 40.183594 C 120.585938 51.171875 105.128906 53.527344 97.050781 45.449219 C 88.972656 37.371094 91.332031 21.917969 102.316406 10.929688 C 112.960938 0.289063 127.796875 -2.257813 136.058594 4.9375 C 126.296875 -3.746094 108.570313 -0.726563 95.84375 11.996094 C 82.777344 25.066406 79.941406 43.421875 89.511719 52.992188 "/>
<path style=" stroke:none;fill-rule:nonzero;fill:rgb(89.84375%,16.868591%,21.972656%);fill-opacity:1;" d="M 136.835938 39.75 C 127.265625 30.179688 108.910156 33.015625 95.84375 46.082031 C 83.117188 58.808594 80.097656 76.535156 88.78125 86.296875 C 81.585938 78.035156 84.132813 63.199219 94.773438 52.558594 C 105.761719 41.570313 121.21875 39.210938 129.296875 47.289063 C 137.371094 55.367188 135.015625 70.824219 124.027344 81.808594 C 113.386719 92.453125 98.550781 95 90.289063 87.804688 C 100.046875 96.484375 117.777344 93.464844 130.5 80.742188 C 143.570313 67.671875 146.40625 49.320313 136.835938 39.75 "/>
<g clip-path="url(#clip1)" clip-rule="nonzero">
<path style=" stroke:none;fill-rule:nonzero;fill:rgb(16.868591%,30.589294%,54.492188%);fill-opacity:1;" d="M 0 123.285156 L 3.523438 119.042969 C 5.179688 120.371094 7.265625 121.304688 8.992188 121.304688 C 10.859375 121.304688 11.652344 120.695313 11.652344 119.652344 C 11.652344 118.539063 10.464844 118.179688 8.488281 117.386719 L 5.574219 116.164063 C 3.058594 115.15625 0.863281 113.035156 0.863281 109.65625 C 0.863281 105.664063 4.457031 102.390625 9.566406 102.390625 C 12.226563 102.390625 15.175781 103.398438 17.335938 105.519531 L 14.242188 109.402344 C 12.660156 108.289063 11.292969 107.710938 9.566406 107.710938 C 8.054688 107.710938 7.121094 108.253906 7.121094 109.296875 C 7.121094 110.410156 8.453125 110.804688 10.574219 111.632813 L 13.414063 112.746094 C 16.328125 113.898438 17.980469 115.914063 17.980469 119.148438 C 17.980469 123.105469 14.671875 126.628906 8.847656 126.628906 C 5.898438 126.628906 2.519531 125.550781 0 123.285156 "/>
</g>
<g clip-path="url(#clip2)" clip-rule="nonzero">
<path style=" stroke:none;fill-rule:nonzero;fill:rgb(16.868591%,30.589294%,54.492188%);fill-opacity:1;" d="M 19.5625 123.285156 L 23.085938 119.042969 C 24.742188 120.371094 26.828125 121.304688 28.554688 121.304688 C 30.425781 121.304688 31.214844 120.695313 31.214844 119.652344 C 31.214844 118.539063 30.03125 118.179688 28.050781 117.386719 L 25.140625 116.164063 C 22.621094 115.15625 20.425781 113.035156 20.425781 109.65625 C 20.425781 105.664063 24.023438 102.390625 29.128906 102.390625 C 31.792969 102.390625 34.742188 103.398438 36.898438 105.519531 L 33.804688 109.402344 C 32.222656 108.289063 30.855469 107.710938 29.128906 107.710938 C 27.621094 107.710938 26.683594 108.253906 26.683594 109.296875 C 26.683594 110.410156 28.015625 110.804688 30.136719 111.632813 L 32.976563 112.746094 C 35.890625 113.898438 37.546875 115.914063 37.546875 119.148438 C 37.546875 123.105469 34.238281 126.628906 28.410156 126.628906 C 25.460938 126.628906 22.082031 125.550781 19.5625 123.285156 "/>
</g>
<g clip-path="url(#clip3)" clip-rule="nonzero">
<path style=" stroke:none;fill-rule:nonzero;fill:rgb(16.868591%,30.589294%,54.492188%);fill-opacity:1;" d="M 41.285156 102.820313 L 47.46875 102.820313 L 47.46875 121.019531 L 56.320313 121.019531 L 56.320313 126.199219 L 41.285156 126.199219 "/>
</g>
<g clip-path="url(#clip4)" clip-rule="nonzero">
<path style=" stroke:none;fill-rule:nonzero;fill:rgb(16.868591%,30.589294%,54.492188%);fill-opacity:1;" d="M 65.308594 102.820313 L 71.636719 102.820313 L 72.933594 113.035156 C 73.183594 115.480469 73.472656 117.925781 73.722656 120.371094 L 73.867188 120.371094 C 74.296875 117.925781 74.730469 115.445313 75.160156 113.035156 L 77.390625 102.820313 L 82.570313 102.820313 L 84.800781 113.035156 C 85.230469 115.375 85.664063 117.890625 86.09375 120.371094 L 86.238281 120.371094 C 86.488281 117.890625 86.777344 115.410156 87.03125 113.035156 L 88.324219 102.820313 L 94.222656 102.820313 L 90.339844 126.199219 L 82.496094 126.199219 L 80.699219 116.917969 C 80.339844 115.121094 80.054688 113.179688 79.835938 111.453125 L 79.691406 111.453125 C 79.441406 113.179688 79.1875 115.121094 78.828125 116.917969 L 77.101563 126.199219 L 69.40625 126.199219 "/>
</g>
<g clip-path="url(#clip5)" clip-rule="nonzero">
<path style=" stroke:none;fill-rule:nonzero;fill:rgb(16.868591%,30.589294%,54.492188%);fill-opacity:1;" d="M 97.167969 126.199219 L 103.355469 126.199219 L 103.355469 102.820313 L 97.167969 102.820313 Z M 97.167969 126.199219 "/>
</g>
<g clip-path="url(#clip6)" clip-rule="nonzero">
<path style=" stroke:none;fill-rule:nonzero;fill:rgb(16.868591%,30.589294%,54.492188%);fill-opacity:1;" d="M 116.265625 116.738281 L 120.4375 112.640625 L 128.027344 126.199219 L 121.121094 126.199219 Z M 116.949219 113.46875 C 119.394531 113.46875 120.6875 112.386719 120.6875 110.375 C 120.6875 108.359375 119.394531 107.710938 116.949219 107.710938 L 114.71875 107.710938 L 114.71875 113.46875 Z M 108.535156 102.820313 L 117.378906 102.820313 C 122.414063 102.820313 126.730469 104.546875 126.730469 110.375 C 126.730469 116.019531 122.414063 118.359375 117.378906 118.359375 L 114.71875 118.359375 L 114.71875 126.199219 L 108.535156 126.199219 "/>
</g>
<g clip-path="url(#clip7)" clip-rule="nonzero">
<path style=" stroke:none;fill-rule:nonzero;fill:rgb(16.868591%,30.589294%,54.492188%);fill-opacity:1;" d="M 131.1875 102.820313 L 146.292969 102.820313 L 146.292969 108 L 137.375 108 L 137.375 111.667969 L 145 111.667969 L 145 116.847656 L 137.375 116.847656 L 137.375 121.019531 L 146.652344 121.019531 L 146.652344 126.199219 L 131.1875 126.199219 "/>
</g>
<g clip-path="url(#clip8)" clip-rule="nonzero">
<path style=" stroke:none;fill-rule:nonzero;fill:rgb(16.868591%,30.589294%,54.492188%);fill-opacity:1;" d="M 151.183594 102.820313 L 157.371094 102.820313 L 157.371094 121.019531 L 166.21875 121.019531 L 166.21875 126.199219 L 151.183594 126.199219 "/>
</g>
<g clip-path="url(#clip9)" clip-rule="nonzero">
<path style=" stroke:none;fill-rule:nonzero;fill:rgb(16.868591%,30.589294%,54.492188%);fill-opacity:1;" d="M 170.242188 102.820313 L 185.347656 102.820313 L 185.347656 108 L 176.429688 108 L 176.429688 111.667969 L 184.054688 111.667969 L 184.054688 116.847656 L 176.429688 116.847656 L 176.429688 121.019531 L 185.710938 121.019531 L 185.710938 126.199219 L 170.242188 126.199219 "/>
</g>
<g clip-path="url(#clip10)" clip-rule="nonzero">
<path style=" stroke:none;fill-rule:nonzero;fill:rgb(16.868591%,30.589294%,54.492188%);fill-opacity:1;" d="M 188.800781 123.285156 L 192.324219 119.042969 C 193.980469 120.371094 196.066406 121.304688 197.792969 121.304688 C 199.660156 121.304688 200.453125 120.695313 200.453125 119.652344 C 200.453125 118.539063 199.265625 118.179688 197.289063 117.386719 L 194.375 116.164063 C 191.859375 115.15625 189.664063 113.035156 189.664063 109.65625 C 189.664063 105.664063 193.261719 102.390625 198.367188 102.390625 C 201.027344 102.390625 203.976563 103.398438 206.136719 105.519531 L 203.042969 109.402344 C 201.460938 108.289063 200.09375 107.710938 198.367188 107.710938 C 196.855469 107.710938 195.921875 108.253906 195.921875 109.296875 C 195.921875 110.410156 197.253906 110.804688 199.375 111.632813 L 202.214844 112.746094 C 205.128906 113.898438 206.78125 115.914063 206.78125 119.148438 C 206.78125 123.105469 203.472656 126.628906 197.648438 126.628906 C 194.699219 126.628906 191.316406 125.550781 188.800781 123.285156 "/>
</g>
<g clip-path="url(#clip11)" clip-rule="nonzero">
<path style=" stroke:none;fill-rule:nonzero;fill:rgb(16.868591%,30.589294%,54.492188%);fill-opacity:1;" d="M 208.363281 123.285156 L 211.886719 119.042969 C 213.542969 120.371094 215.628906 121.304688 217.355469 121.304688 C 219.226563 121.304688 220.015625 120.695313 220.015625 119.652344 C 220.015625 118.539063 218.828125 118.179688 216.851563 117.386719 L 213.9375 116.164063 C 211.421875 115.15625 209.226563 113.035156 209.226563 109.65625 C 209.226563 105.664063 212.824219 102.390625 217.929688 102.390625 C 220.59375 102.390625 223.539063 103.398438 225.699219 105.519531 L 222.605469 109.402344 C 221.023438 108.289063 219.65625 107.710938 217.929688 107.710938 C 216.421875 107.710938 215.484375 108.253906 215.484375 109.296875 C 215.484375 110.410156 216.816406 110.804688 218.9375 111.632813 L 221.777344 112.746094 C 224.691406 113.898438 226.347656 115.914063 226.347656 119.148438 C 226.347656 123.105469 223.035156 126.628906 217.210938 126.628906 C 214.261719 126.628906 210.882813 125.550781 208.363281 123.285156 "/>
</g>
</g>
</svg>
