<svg width="18" height="18" viewBox="0 0 18 18" fill="none" xmlns="http://www.w3.org/2000/svg">
<g clip-path="url(#clip0_83_1163)">
<path fill-rule="evenodd" clip-rule="evenodd" d="M2.25 3.5625C2.14645 3.5625 2.0625 3.64645 2.0625 3.75V15.75C2.0625 15.8536 2.14645 15.9375 2.25 15.9375H15.75C15.8536 15.9375 15.9375 15.8536 15.9375 15.75V3.75C15.9375 3.64645 15.8536 3.5625 15.75 3.5625H2.25ZM0.9375 3.75C0.9375 3.02513 1.52513 2.4375 2.25 2.4375H15.75C16.4749 2.4375 17.0625 3.02513 17.0625 3.75V15.75C17.0625 16.4749 16.4749 17.0625 15.75 17.0625H2.25C1.52513 17.0625 0.9375 16.4749 0.9375 15.75V3.75Z" fill="#7E7F92"/>
<path fill-rule="evenodd" clip-rule="evenodd" d="M0.9375 7.5C0.9375 7.18934 1.18934 6.9375 1.5 6.9375H16.5C16.8107 6.9375 17.0625 7.18934 17.0625 7.5C17.0625 7.81066 16.8107 8.0625 16.5 8.0625H1.5C1.18934 8.0625 0.9375 7.81066 0.9375 7.5Z" fill="#7E7F92"/>
<path fill-rule="evenodd" clip-rule="evenodd" d="M0.9375 12C0.9375 11.6893 1.18934 11.4375 1.5 11.4375H16.5C16.8107 11.4375 17.0625 11.6893 17.0625 12C17.0625 12.3107 16.8107 12.5625 16.5 12.5625H1.5C1.18934 12.5625 0.9375 12.3107 0.9375 12Z" fill="#7E7F92"/>
<path fill-rule="evenodd" clip-rule="evenodd" d="M6.375 0.9375C6.68566 0.9375 6.9375 1.18934 6.9375 1.5V4.5C6.9375 4.81066 6.68566 5.0625 6.375 5.0625C6.06434 5.0625 5.8125 4.81066 5.8125 4.5V1.5C5.8125 1.18934 6.06434 0.9375 6.375 0.9375Z" fill="#7E7F92"/>
<path fill-rule="evenodd" clip-rule="evenodd" d="M11.625 0.9375C11.9357 0.9375 12.1875 1.18934 12.1875 1.5V4.5C12.1875 4.81066 11.9357 5.0625 11.625 5.0625C11.3143 5.0625 11.0625 4.81066 11.0625 4.5V1.5C11.0625 1.18934 11.3143 0.9375 11.625 0.9375Z" fill="#7E7F92"/>
<path fill-rule="evenodd" clip-rule="evenodd" d="M6.375 6.9375C6.68566 6.9375 6.9375 7.18934 6.9375 7.5V16.5C6.9375 16.8107 6.68566 17.0625 6.375 17.0625C6.06434 17.0625 5.8125 16.8107 5.8125 16.5V7.5C5.8125 7.18934 6.06434 6.9375 6.375 6.9375Z" fill="#7E7F92"/>
<path fill-rule="evenodd" clip-rule="evenodd" d="M11.625 6.9375C11.9357 6.9375 12.1875 7.18934 12.1875 7.5V16.5C12.1875 16.8107 11.9357 17.0625 11.625 17.0625C11.3143 17.0625 11.0625 16.8107 11.0625 16.5V7.5C11.0625 7.18934 11.3143 6.9375 11.625 6.9375Z" fill="#7E7F92"/>
<path fill-rule="evenodd" clip-rule="evenodd" d="M16.5 4.3125C16.8107 4.3125 17.0625 4.56434 17.0625 4.875V14.625C17.0625 14.9357 16.8107 15.1875 16.5 15.1875C16.1893 15.1875 15.9375 14.9357 15.9375 14.625V4.875C15.9375 4.56434 16.1893 4.3125 16.5 4.3125Z" fill="#7E7F92"/>
<path fill-rule="evenodd" clip-rule="evenodd" d="M1.5 4.3125C1.81066 4.3125 2.0625 4.56434 2.0625 4.875V14.625C2.0625 14.9357 1.81066 15.1875 1.5 15.1875C1.18934 15.1875 0.9375 14.9357 0.9375 14.625V4.875C0.9375 4.56434 1.18934 4.3125 1.5 4.3125Z" fill="#7E7F92"/>
<path fill-rule="evenodd" clip-rule="evenodd" d="M4.6875 16.5C4.6875 16.1893 4.93934 15.9375 5.25 15.9375H12.75C13.0607 15.9375 13.3125 16.1893 13.3125 16.5C13.3125 16.8107 13.0607 17.0625 12.75 17.0625H5.25C4.93934 17.0625 4.6875 16.8107 4.6875 16.5Z" fill="#7E7F92"/>
</g>
<defs>
<clipPath id="clip0_83_1163">
<rect width="18" height="18" fill="white"/>
</clipPath>
</defs>
</svg>
