<svg width="18" height="18" viewBox="0 0 18 18" fill="none" xmlns="http://www.w3.org/2000/svg">
<path fill-rule="evenodd" clip-rule="evenodd" d="M4.3125 1.5C4.3125 1.18934 4.56434 0.9375 4.875 0.9375H11.25C11.5607 0.9375 11.8125 1.18934 11.8125 1.5V5.4375H15.375C15.6857 5.4375 15.9375 5.68934 15.9375 6V14.25C15.9375 14.5607 15.6857 14.8125 15.375 14.8125H4.875C4.56434 14.8125 4.3125 14.5607 4.3125 14.25V1.5ZM5.4375 2.0625V13.6875H14.8125V6.5625H11.25C10.9393 6.5625 10.6875 6.31066 10.6875 6V2.0625H5.4375Z" fill="#7E7F92"/>
<path fill-rule="evenodd" clip-rule="evenodd" d="M10.8699 1.08535C11.0989 0.875433 11.4547 0.890904 11.6647 1.11991L15.7897 5.61991C15.9996 5.84891 15.9841 6.20473 15.7551 6.41465C15.5261 6.62457 15.1703 6.6091 14.9604 6.3801L10.8354 1.8801C10.6254 1.65109 10.6409 1.29527 10.8699 1.08535Z" fill="#7E7F92"/>
<path fill-rule="evenodd" clip-rule="evenodd" d="M2.625 6.9375C2.93566 6.9375 3.1875 7.18934 3.1875 7.5V15.9375H10.5C10.8107 15.9375 11.0625 16.1893 11.0625 16.5C11.0625 16.8107 10.8107 17.0625 10.5 17.0625H2.625C2.31434 17.0625 2.0625 16.8107 2.0625 16.5V7.5C2.0625 7.18934 2.31434 6.9375 2.625 6.9375Z" fill="#7E7F92"/>
<path fill-rule="evenodd" clip-rule="evenodd" d="M6.5625 7.5C6.5625 7.18934 6.81434 6.9375 7.125 6.9375H8.625C8.93566 6.9375 9.1875 7.18934 9.1875 7.5C9.1875 7.81066 8.93566 8.0625 8.625 8.0625H7.125C6.81434 8.0625 6.5625 7.81066 6.5625 7.5Z" fill="#7E7F92"/>
<path fill-rule="evenodd" clip-rule="evenodd" d="M6.5625 10.5C6.5625 10.1893 6.81434 9.9375 7.125 9.9375H11.625C11.9357 9.9375 12.1875 10.1893 12.1875 10.5C12.1875 10.8107 11.9357 11.0625 11.625 11.0625H7.125C6.81434 11.0625 6.5625 10.8107 6.5625 10.5Z" fill="#7E7F92"/>
</svg>
