<svg width="18" height="18" viewBox="0 0 18 18" fill="none" xmlns="http://www.w3.org/2000/svg">
<path fill-rule="evenodd" clip-rule="evenodd" d="M0.9375 1.5C0.9375 1.18934 1.18934 0.9375 1.5 0.9375H8.625C8.93566 0.9375 9.1875 1.18934 9.1875 1.5V9.74999C9.1875 10.0607 8.93566 10.3125 8.625 10.3125H1.5C1.18934 10.3125 0.9375 10.0607 0.9375 9.74999V1.5ZM2.0625 2.0625V9.18749H8.0625V2.0625H2.0625Z" fill="white"/>
<path fill-rule="evenodd" clip-rule="evenodd" d="M0.9375 12.75C0.9375 12.4393 1.18934 12.1875 1.5 12.1875H16.5C16.8107 12.1875 17.0625 12.4393 17.0625 12.75V16.125C17.0625 16.4357 16.8107 16.6875 16.5 16.6875H1.5C1.18934 16.6875 0.9375 16.4357 0.9375 16.125V12.75ZM2.0625 13.3125V15.5625H15.9375V13.3125H2.0625Z" fill="white"/>
<path fill-rule="evenodd" clip-rule="evenodd" d="M11.0625 1.5C11.0625 1.18934 11.3143 0.9375 11.625 0.9375H16.5C16.8107 0.9375 17.0625 1.18934 17.0625 1.5V4.49999C17.0625 4.81065 16.8107 5.06249 16.5 5.06249H11.625C11.3143 5.06249 11.0625 4.81065 11.0625 4.49999V1.5ZM12.1875 2.0625V3.93749H15.9375V2.0625H12.1875Z" fill="white"/>
<path fill-rule="evenodd" clip-rule="evenodd" d="M11.0625 6.75C11.0625 6.43934 11.3143 6.1875 11.625 6.1875H16.5C16.8107 6.1875 17.0625 6.43934 17.0625 6.75V9.75C17.0625 10.0607 16.8107 10.3125 16.5 10.3125H11.625C11.3143 10.3125 11.0625 10.0607 11.0625 9.75V6.75ZM12.1875 7.3125V9.1875H15.9375V7.3125H12.1875Z" fill="white"/>
</svg>
