<svg width="18" height="18" viewBox="0 0 18 18" fill="none" xmlns="http://www.w3.org/2000/svg">
<path fill-rule="evenodd" clip-rule="evenodd" d="M1.6875 4.125C1.6875 3.19302 2.44302 2.4375 3.375 2.4375H13.5C13.8107 2.4375 14.0625 2.68934 14.0625 3C14.0625 3.31066 13.8107 3.5625 13.5 3.5625H3.375C3.06434 3.5625 2.8125 3.81434 2.8125 4.125V14.625C2.8125 14.9357 3.06434 15.1875 3.375 15.1875H14.625C14.9357 15.1875 15.1875 14.9357 15.1875 14.625V6.75C15.1875 6.43934 15.4393 6.1875 15.75 6.1875C16.0607 6.1875 16.3125 6.43934 16.3125 6.75V14.625C16.3125 15.557 15.557 16.3125 14.625 16.3125H3.375C2.44303 16.3125 1.6875 15.557 1.6875 14.625V4.125Z" fill="#7E7F92"/>
<path fill-rule="evenodd" clip-rule="evenodd" d="M11.6934 1.10225C11.9131 0.882582 12.2693 0.882583 12.4889 1.10225L14.0799 2.69324C14.2996 2.91291 14.2996 3.26907 14.0799 3.48874L12.4889 5.07973C12.2693 5.2994 11.9131 5.2994 11.6934 5.07973C11.4738 4.86007 11.4738 4.50391 11.6934 4.28424L12.8867 3.09099L11.6934 1.89775C11.4738 1.67807 11.4738 1.32192 11.6934 1.10225Z" fill="#7E7F92"/>
<path fill-rule="evenodd" clip-rule="evenodd" d="M9 5.8125C9.31066 5.8125 9.5625 6.06434 9.5625 6.375V12.75C9.5625 13.0607 9.31066 13.3125 9 13.3125C8.68934 13.3125 8.4375 13.0607 8.4375 12.75V6.375C8.4375 6.06434 8.68934 5.8125 9 5.8125Z" fill="#7E7F92"/>
<path fill-rule="evenodd" clip-rule="evenodd" d="M12 8.4375C12.3107 8.4375 12.5625 8.68934 12.5625 9V12.75C12.5625 13.0607 12.3107 13.3125 12 13.3125C11.6893 13.3125 11.4375 13.0607 11.4375 12.75V9C11.4375 8.68934 11.6893 8.4375 12 8.4375Z" fill="#7E7F92"/>
<path fill-rule="evenodd" clip-rule="evenodd" d="M6 8.4375C6.31066 8.4375 6.5625 8.68934 6.5625 9V12.75C6.5625 13.0607 6.31066 13.3125 6 13.3125C5.68934 13.3125 5.4375 13.0607 5.4375 12.75V9C5.4375 8.68934 5.68934 8.4375 6 8.4375Z" fill="#7E7F92"/>
</svg>
