<svg width="18" height="18" viewBox="0 0 18 18" fill="none" xmlns="http://www.w3.org/2000/svg">
<path fill-rule="evenodd" clip-rule="evenodd" d="M3.375 2.8125C3.06434 2.8125 2.8125 3.06434 2.8125 3.375V14.625C2.8125 14.9357 3.06434 15.1875 3.375 15.1875H14.625C14.9357 15.1875 15.1875 14.9357 15.1875 14.625V3.375C15.1875 3.06434 14.9357 2.8125 14.625 2.8125H3.375ZM1.6875 3.375C1.6875 2.44302 2.44302 1.6875 3.375 1.6875H14.625C15.557 1.6875 16.3125 2.44302 16.3125 3.375V14.625C16.3125 15.557 15.557 16.3125 14.625 16.3125H3.375C2.44302 16.3125 1.6875 15.557 1.6875 14.625V3.375Z" fill="#7E7F92"/>
<path fill-rule="evenodd" clip-rule="evenodd" d="M1.6875 5.25C1.6875 4.93934 1.93934 4.6875 2.25 4.6875H15C15.3107 4.6875 15.5625 4.93934 15.5625 5.25C15.5625 5.56066 15.3107 5.8125 15 5.8125H2.25C1.93934 5.8125 1.6875 5.56066 1.6875 5.25Z" fill="#7E7F92"/>
<path fill-rule="evenodd" clip-rule="evenodd" d="M10.6875 8.25C10.6875 7.93934 10.9393 7.6875 11.25 7.6875H15.75C16.0607 7.6875 16.3125 7.93934 16.3125 8.25C16.3125 8.56066 16.0607 8.8125 15.75 8.8125H11.25C10.9393 8.8125 10.6875 8.56066 10.6875 8.25Z" fill="#7E7F92"/>
<path fill-rule="evenodd" clip-rule="evenodd" d="M10.6875 11.25C10.6875 10.9393 10.9393 10.6875 11.25 10.6875H15.75C16.0607 10.6875 16.3125 10.9393 16.3125 11.25C16.3125 11.5607 16.0607 11.8125 15.75 11.8125H11.25C10.9393 11.8125 10.6875 11.5607 10.6875 11.25Z" fill="#7E7F92"/>
<path fill-rule="evenodd" clip-rule="evenodd" d="M8.0625 8.25C8.0625 7.93934 8.31434 7.6875 8.625 7.6875H9C9.31066 7.6875 9.5625 7.93934 9.5625 8.25C9.5625 8.56066 9.31066 8.8125 9 8.8125H8.625C8.31434 8.8125 8.0625 8.56066 8.0625 8.25Z" fill="#7E7F92"/>
<path fill-rule="evenodd" clip-rule="evenodd" d="M8.0625 11.25C8.0625 10.9393 8.31434 10.6875 8.625 10.6875H9C9.31066 10.6875 9.5625 10.9393 9.5625 11.25C9.5625 11.5607 9.31066 11.8125 9 11.8125H8.625C8.31434 11.8125 8.0625 11.5607 8.0625 11.25Z" fill="#7E7F92"/>
<path fill-rule="evenodd" clip-rule="evenodd" d="M5.25 1.6875C5.56066 1.6875 5.8125 1.93934 5.8125 2.25V15.75C5.8125 16.0607 5.56066 16.3125 5.25 16.3125C4.93934 16.3125 4.6875 16.0607 4.6875 15.75V2.25C4.6875 1.93934 4.93934 1.6875 5.25 1.6875Z" fill="#7E7F92"/>
</svg>
