<svg width="18" height="18" viewBox="0 0 18 18" fill="none" xmlns="http://www.w3.org/2000/svg">
<path fill-rule="evenodd" clip-rule="evenodd" d="M0.9375 10.875C0.9375 10.5643 1.18934 10.3125 1.5 10.3125H16.5C16.8107 10.3125 17.0625 10.5643 17.0625 10.875V15.75C17.0625 16.0607 16.8107 16.3125 16.5 16.3125H1.5C1.18934 16.3125 0.9375 16.0607 0.9375 15.75V10.875ZM2.0625 11.4375V15.1875H15.9375V11.4375H2.0625Z" fill="#7E7F92"/>
<path d="M13.3125 14.25C13.8303 14.25 14.25 13.8303 14.25 13.3125C14.25 12.7947 13.8303 12.375 13.3125 12.375C12.7947 12.375 12.375 12.7947 12.375 13.3125C12.375 13.8303 12.7947 14.25 13.3125 14.25Z" fill="#7E7F92"/>
<path fill-rule="evenodd" clip-rule="evenodd" d="M2.83897 1.75907C2.89365 1.49863 3.12335 1.31213 3.38947 1.31213H14.6328C14.8994 1.31213 15.1294 1.49931 15.1835 1.76036L17.0509 10.7607L15.9493 10.9892L14.175 2.43713H3.84615L2.05059 10.9905L0.949585 10.7594L2.83897 1.75907Z" fill="#7E7F92"/>
</svg>
