<svg width="18" height="18" viewBox="0 0 18 18" fill="none" xmlns="http://www.w3.org/2000/svg">
<path fill-rule="evenodd" clip-rule="evenodd" d="M3.375 2.8125C3.06434 2.8125 2.8125 3.06434 2.8125 3.375V14.625C2.8125 14.9357 3.06434 15.1875 3.375 15.1875H14.625C14.9357 15.1875 15.1875 14.9357 15.1875 14.625V3.375C15.1875 3.06434 14.9357 2.8125 14.625 2.8125H3.375ZM1.6875 3.375C1.6875 2.44302 2.44302 1.6875 3.375 1.6875H14.625C15.557 1.6875 16.3125 2.44302 16.3125 3.375V14.625C16.3125 15.557 15.557 16.3125 14.625 16.3125H3.375C2.44302 16.3125 1.6875 15.557 1.6875 14.625V3.375Z" fill="#7E7F92"/>
<path fill-rule="evenodd" clip-rule="evenodd" d="M1.6875 8.25C1.6875 7.93934 1.93934 7.6875 2.25 7.6875H15.75C16.0607 7.6875 16.3125 7.93934 16.3125 8.25C16.3125 8.56066 16.0607 8.8125 15.75 8.8125H2.25C1.93934 8.8125 1.6875 8.56066 1.6875 8.25Z" fill="#7E7F92"/>
<path fill-rule="evenodd" clip-rule="evenodd" d="M10.875 1.6875C11.1857 1.6875 11.4375 1.93934 11.4375 2.25V8.25C11.4375 8.56066 11.1857 8.8125 10.875 8.8125C10.5643 8.8125 10.3125 8.56066 10.3125 8.25V2.25C10.3125 1.93934 10.5643 1.6875 10.875 1.6875Z" fill="#7E7F92"/>
<path fill-rule="evenodd" clip-rule="evenodd" d="M9.1875 2.25C9.1875 1.93934 9.43934 1.6875 9.75 1.6875H12C12.3107 1.6875 12.5625 1.93934 12.5625 2.25C12.5625 2.56066 12.3107 2.8125 12 2.8125H9.75C9.43934 2.8125 9.1875 2.56066 9.1875 2.25Z" fill="#7E7F92"/>
<path fill-rule="evenodd" clip-rule="evenodd" d="M2.25 6.5625C2.56066 6.5625 2.8125 6.81434 2.8125 7.125V9.375C2.8125 9.68566 2.56066 9.9375 2.25 9.9375C1.93934 9.9375 1.6875 9.68566 1.6875 9.375V7.125C1.6875 6.81434 1.93934 6.5625 2.25 6.5625Z" fill="#7E7F92"/>
<path fill-rule="evenodd" clip-rule="evenodd" d="M15.75 6.5625C16.0607 6.5625 16.3125 6.81434 16.3125 7.125V9.375C16.3125 9.68566 16.0607 9.9375 15.75 9.9375C15.4393 9.9375 15.1875 9.68566 15.1875 9.375V7.125C15.1875 6.81434 15.4393 6.5625 15.75 6.5625Z" fill="#7E7F92"/>
</svg>
