<svg width="18" height="18" viewBox="0 0 18 18" fill="none" xmlns="http://www.w3.org/2000/svg">
<path fill-rule="evenodd" clip-rule="evenodd" d="M9.02347 3.1875C9.33413 3.18791 9.58564 3.44008 9.58523 3.75074L9.57147 14.2507C9.57106 14.5614 9.31889 14.8129 9.00823 14.8125C8.69757 14.8121 8.44607 14.5599 8.44647 14.2493L8.46023 3.74926C8.46064 3.4386 8.71281 3.18709 9.02347 3.1875Z" fill="#7E7F92"/>
<path fill-rule="evenodd" clip-rule="evenodd" d="M3.1875 9C3.1875 8.68934 3.43934 8.4375 3.75 8.4375H14.25C14.5607 8.4375 14.8125 8.68934 14.8125 9C14.8125 9.31066 14.5607 9.5625 14.25 9.5625H3.75C3.43934 9.5625 3.1875 9.31066 3.1875 9Z" fill="#7E7F92"/>
</svg>
