<svg width="24" height="24" viewBox="0 0 24 24" fill="none" xmlns="http://www.w3.org/2000/svg">
<path d="M11.9999 3.73953C15.0824 3.73953 17.5813 6.2384 17.5813 9.32092V17.5814H6.41851V9.32092C6.41851 6.2384 8.91738 3.73953 11.9999 3.73953ZM18.9208 17.5814V9.32092C18.9208 5.49859 15.8222 2.39999 11.9999 2.39999C8.17757 2.39999 5.07897 5.49859 5.07897 9.32092V17.5814H3.06967C2.69977 17.5814 2.3999 17.8813 2.3999 18.2512C2.3999 18.6211 2.69977 18.9209 3.06967 18.9209H20.9301C21.3 18.9209 21.5999 18.6211 21.5999 18.2512C21.5999 17.8813 21.3 17.5814 20.9301 17.5814H18.9208Z" fill="#7E7F92"/>
<path d="M9.09758 18.2512C9.09758 17.8813 9.39744 17.5814 9.76734 17.5814H14.2325C14.6024 17.5814 14.9022 17.8813 14.9022 18.2512V18.6977C14.9022 20.3006 13.6028 21.6 11.9999 21.6C10.397 21.6 9.09758 20.3006 9.09758 18.6977V18.2512ZM10.4529 18.9209C10.5613 19.6783 11.2126 20.2605 11.9999 20.2605C12.7872 20.2605 13.4385 19.6783 13.5469 18.9209H10.4529Z" fill="#7E7F92"/>
</svg>
