<svg width="18" height="18" viewBox="0 0 18 18" fill="none" xmlns="http://www.w3.org/2000/svg">
<path d="M6.84447 1.22901C7.10201 1.15772 7.37416 1.27746 7.4956 1.5155C7.77539 2.06393 8.34457 2.43749 9 2.43749C9.65543 2.43749 10.2246 2.06393 10.5044 1.5155C10.6258 1.27746 10.898 1.15772 11.1555 1.22901C12.4188 1.57872 13.5569 2.22779 14.4888 3.0943C14.6708 3.26352 14.7202 3.5321 14.6103 3.75499C14.4998 3.979 14.4375 4.23142 14.4375 4.49999C14.4375 5.43197 15.193 6.18749 16.125 6.18749L16.1485 6.18732C16.3972 6.18377 16.6187 6.34394 16.6932 6.5812C16.9333 7.34547 17.0625 8.15817 17.0625 8.99999C17.0625 9.55561 17.0062 10.0987 16.8988 10.6236C16.8411 10.9058 16.5795 11.0988 16.2927 11.0707C16.2378 11.0653 16.1818 11.0625 16.125 11.0625C15.193 11.0625 14.4375 11.818 14.4375 12.75C14.4375 13.1648 14.5865 13.5434 14.8345 13.8373C15.0202 14.0575 15.0096 14.3825 14.8098 14.5901C13.8583 15.5789 12.6559 16.3258 11.3041 16.7283C11.0105 16.8157 10.701 16.6522 10.6078 16.3605C10.3901 15.6795 9.75177 15.1875 9 15.1875C8.24823 15.1875 7.60991 15.6795 7.39222 16.3605C7.29896 16.6522 6.98945 16.8157 6.69592 16.7283C5.34409 16.3258 4.14172 15.5789 3.19015 14.5901C2.99037 14.3825 2.97974 14.0575 3.16554 13.8373C3.41354 13.5434 3.5625 13.1648 3.5625 12.75C3.5625 11.818 2.80698 11.0625 1.875 11.0625C1.81817 11.0625 1.76222 11.0653 1.70725 11.0707C1.42054 11.0988 1.15889 10.9058 1.10116 10.6236C0.993787 10.0987 0.9375 9.5556 0.9375 8.99999C0.9375 8.15818 1.06671 7.34548 1.30677 6.5812C1.3813 6.34394 1.60278 6.18377 1.85145 6.18732L1.875 6.18749C2.80698 6.18749 3.5625 5.43197 3.5625 4.49999C3.5625 4.23142 3.50017 3.979 3.38971 3.75499C3.27982 3.5321 3.32921 3.26352 3.51119 3.0943C4.44308 2.22779 5.58115 1.57872 6.84447 1.22901ZM4.56207 3.66742C4.64364 3.93092 4.6875 4.21067 4.6875 4.49999C4.6875 5.91708 3.63946 7.08939 2.27619 7.28409C2.13673 7.83237 2.0625 8.40716 2.0625 8.99999C2.0625 9.32202 2.0844 9.63868 2.12675 9.9486C3.56211 10.0759 4.6875 11.2815 4.6875 12.75C4.6875 13.2502 4.55655 13.7206 4.32729 14.1279C4.96984 14.7138 5.72252 15.1803 6.55022 15.4927C7.0328 14.6392 7.94853 14.0625 9 14.0625C10.0515 14.0625 10.9672 14.6392 11.4498 15.4927C12.2775 15.1803 13.0302 14.7138 13.6727 14.1279C13.4435 13.7206 13.3125 13.2502 13.3125 12.75C13.3125 11.2815 14.4379 10.0759 15.8732 9.9486C15.9156 9.63868 15.9375 9.32202 15.9375 8.99999C15.9375 8.40717 15.8633 7.83238 15.7238 7.28409C14.3605 7.08939 13.3125 5.91708 13.3125 4.49999C13.3125 4.21067 13.3564 3.93092 13.4379 3.66743C12.7963 3.13282 12.0571 2.7121 11.2514 2.4358C10.7388 3.11922 9.9215 3.56249 9 3.56249C8.0785 3.56249 7.26119 3.11922 6.74865 2.4358C5.94286 2.7121 5.20367 3.13281 4.56207 3.66742Z" fill="#7E7F92"/>
<path d="M5.8125 8.99999C5.8125 7.23958 7.23959 5.81249 9 5.81249C10.7604 5.81249 12.1875 7.23958 12.1875 8.99999C12.1875 10.7604 10.7604 12.1875 9 12.1875C7.23959 12.1875 5.8125 10.7604 5.8125 8.99999ZM9 6.93749C7.86091 6.93749 6.9375 7.8609 6.9375 8.99999C6.9375 10.1391 7.86091 11.0625 9 11.0625C10.1391 11.0625 11.0625 10.1391 11.0625 8.99999C11.0625 7.8609 10.1391 6.93749 9 6.93749Z" fill="#7E7F92"/>
</svg>
