<svg width="18" height="18" viewBox="0 0 18 18" fill="none" xmlns="http://www.w3.org/2000/svg">
<path d="M1.6875 2.25C1.6875 1.93934 1.93934 1.6875 2.25 1.6875H7.5C7.81066 1.6875 8.0625 1.93934 8.0625 2.25V6.375C8.0625 6.68566 7.81066 6.9375 7.5 6.9375H2.25C1.93934 6.9375 1.6875 6.68566 1.6875 6.375V2.25ZM2.8125 2.8125V5.8125H6.9375V2.8125H2.8125Z" fill="#7E7F92"/>
<path d="M9.9375 11.625C9.9375 11.3143 10.1893 11.0625 10.5 11.0625H15.75C16.0607 11.0625 16.3125 11.3143 16.3125 11.625V15.75C16.3125 16.0607 16.0607 16.3125 15.75 16.3125H10.5C10.1893 16.3125 9.9375 16.0607 9.9375 15.75V11.625ZM11.0625 12.1875V15.1875H15.1875V12.1875H11.0625Z" fill="#7E7F92"/>
<path d="M9.9375 2.25C9.9375 1.93934 10.1893 1.6875 10.5 1.6875H15.75C16.0607 1.6875 16.3125 1.93934 16.3125 2.25V8.625C16.3125 8.93566 16.0607 9.1875 15.75 9.1875H10.5C10.1893 9.1875 9.9375 8.93566 9.9375 8.625V2.25ZM11.0625 2.8125V8.0625H15.1875V2.8125H11.0625Z" fill="#7E7F92"/>
<path d="M1.6875 9.375C1.6875 9.06434 1.93934 8.8125 2.25 8.8125H7.5C7.81066 8.8125 8.0625 9.06434 8.0625 9.375V15.75C8.0625 16.0607 7.81066 16.3125 7.5 16.3125H2.25C1.93934 16.3125 1.6875 16.0607 1.6875 15.75V9.375ZM2.8125 9.9375V15.1875H6.9375V9.9375H2.8125Z" fill="#7E7F92"/>
</svg>
