<svg width="18" height="18" viewBox="0 0 18 18" fill="none" xmlns="http://www.w3.org/2000/svg">
<path fill-rule="evenodd" clip-rule="evenodd" d="M3.375 2.8125C3.06434 2.8125 2.8125 3.06434 2.8125 3.375V14.625C2.8125 14.9357 3.06434 15.1875 3.375 15.1875H14.625C14.9357 15.1875 15.1875 14.9357 15.1875 14.625V3.375C15.1875 3.06434 14.9357 2.8125 14.625 2.8125H3.375ZM1.6875 3.375C1.6875 2.44302 2.44302 1.6875 3.375 1.6875H14.625C15.557 1.6875 16.3125 2.44302 16.3125 3.375V14.625C16.3125 15.557 15.557 16.3125 14.625 16.3125H3.375C2.44302 16.3125 1.6875 15.557 1.6875 14.625V3.375Z" fill="#7E7F92"/>
<path fill-rule="evenodd" clip-rule="evenodd" d="M1.6875 6C1.6875 5.68934 1.93934 5.4375 2.25 5.4375H15.75C16.0607 5.4375 16.3125 5.68934 16.3125 6C16.3125 6.31066 16.0607 6.5625 15.75 6.5625H2.25C1.93934 6.5625 1.6875 6.31066 1.6875 6Z" fill="#7E7F92"/>
<path fill-rule="evenodd" clip-rule="evenodd" d="M2.25 4.3125C2.56066 4.3125 2.8125 4.56434 2.8125 4.875V7.125C2.8125 7.43566 2.56066 7.6875 2.25 7.6875C1.93934 7.6875 1.6875 7.43566 1.6875 7.125V4.875C1.6875 4.56434 1.93934 4.3125 2.25 4.3125Z" fill="#7E7F92"/>
<path fill-rule="evenodd" clip-rule="evenodd" d="M15.75 4.6875C16.0607 4.6875 16.3125 4.93934 16.3125 5.25V7.5C16.3125 7.81066 16.0607 8.0625 15.75 8.0625C15.4393 8.0625 15.1875 7.81066 15.1875 7.5V5.25C15.1875 4.93934 15.4393 4.6875 15.75 4.6875Z" fill="#7E7F92"/>
<path fill-rule="evenodd" clip-rule="evenodd" d="M12 5.4375C12.3107 5.4375 12.5625 5.68934 12.5625 6V15.75C12.5625 16.0607 12.3107 16.3125 12 16.3125C11.6893 16.3125 11.4375 16.0607 11.4375 15.75V6C11.4375 5.68934 11.6893 5.4375 12 5.4375Z" fill="#7E7F92"/>
<path fill-rule="evenodd" clip-rule="evenodd" d="M10.3125 15.75C10.3125 15.4393 10.5643 15.1875 10.875 15.1875H13.125C13.4357 15.1875 13.6875 15.4393 13.6875 15.75C13.6875 16.0607 13.4357 16.3125 13.125 16.3125H10.875C10.5643 16.3125 10.3125 16.0607 10.3125 15.75Z" fill="#7E7F92"/>
</svg>
