<svg width="18" height="18" viewBox="0 0 18 18" fill="none" xmlns="http://www.w3.org/2000/svg">
<path fill-rule="evenodd" clip-rule="evenodd" d="M1.6875 3.375C1.6875 2.44302 2.44302 1.6875 3.375 1.6875H14.625C15.557 1.6875 16.3125 2.44303 16.3125 3.375V14.625C16.3125 15.557 15.557 16.3125 14.625 16.3125H3.375C2.44303 16.3125 1.6875 15.557 1.6875 14.625V3.375ZM3.375 2.8125C3.06434 2.8125 2.8125 3.06434 2.8125 3.375V14.625C2.8125 14.9357 3.06434 15.1875 3.375 15.1875H14.625C14.9357 15.1875 15.1875 14.9357 15.1875 14.625V3.375C15.1875 3.06434 14.9357 2.8125 14.625 2.8125H3.375Z" fill="#7E7F92"/>
<path fill-rule="evenodd" clip-rule="evenodd" d="M4.6875 9C4.6875 8.68934 4.93934 8.4375 5.25 8.4375H9.75C10.0607 8.4375 10.3125 8.68934 10.3125 9C10.3125 9.31066 10.0607 9.5625 9.75 9.5625H5.25C4.93934 9.5625 4.6875 9.31066 4.6875 9Z" fill="#7E7F92"/>
<path fill-rule="evenodd" clip-rule="evenodd" d="M4.6875 5.625C4.6875 5.31434 4.93934 5.0625 5.25 5.0625H12.75C13.0607 5.0625 13.3125 5.31434 13.3125 5.625C13.3125 5.93566 13.0607 6.1875 12.75 6.1875H5.25C4.93934 6.1875 4.6875 5.93566 4.6875 5.625Z" fill="#7E7F92"/>
<path fill-rule="evenodd" clip-rule="evenodd" d="M4.6875 12.375C4.6875 12.0643 4.93934 11.8125 5.25 11.8125H12C12.3107 11.8125 12.5625 12.0643 12.5625 12.375C12.5625 12.6857 12.3107 12.9375 12 12.9375H5.25C4.93934 12.9375 4.6875 12.6857 4.6875 12.375Z" fill="#7E7F92"/>
</svg>
