<svg width="18" height="18" viewBox="0 0 18 18" fill="none" xmlns="http://www.w3.org/2000/svg">
<path fill-rule="evenodd" clip-rule="evenodd" d="M1.6875 3.375C1.6875 2.44302 2.44302 1.6875 3.375 1.6875H14.625C15.557 1.6875 16.3125 2.44303 16.3125 3.375V14.625C16.3125 15.557 15.557 16.3125 14.625 16.3125H3.375C2.44303 16.3125 1.6875 15.557 1.6875 14.625V3.375ZM3.375 2.8125C3.06434 2.8125 2.8125 3.06434 2.8125 3.375V14.625C2.8125 14.9357 3.06434 15.1875 3.375 15.1875H14.625C14.9357 15.1875 15.1875 14.9357 15.1875 14.625V3.375C15.1875 3.06434 14.9357 2.8125 14.625 2.8125H3.375Z" fill="#7E7F92"/>
<path fill-rule="evenodd" clip-rule="evenodd" d="M5.4375 6C5.4375 5.68934 5.68934 5.4375 6 5.4375H12C12.3107 5.4375 12.5625 5.68934 12.5625 6V12C12.5625 12.3107 12.3107 12.5625 12 12.5625H6C5.68934 12.5625 5.4375 12.3107 5.4375 12V6ZM6.5625 6.5625V11.4375H11.4375V6.5625H6.5625Z" fill="#7E7F92"/>
</svg>
