<svg width="18" height="18" viewBox="0 0 18 18" fill="none" xmlns="http://www.w3.org/2000/svg">
<g clip-path="url(#clip0_83_1223)">
<path fill-rule="evenodd" clip-rule="evenodd" d="M13.5 5.4375C15.4675 5.4375 17.0625 7.03248 17.0625 9C17.0625 10.9675 15.4675 12.5625 13.5 12.5625V11.4375C14.8462 11.4375 15.9375 10.3462 15.9375 9C15.9375 7.6538 14.8462 6.5625 13.5 6.5625V5.4375Z" fill="#7E7F92"/>
<path fill-rule="evenodd" clip-rule="evenodd" d="M0.9375 9C0.9375 7.03248 2.53249 5.4375 4.5 5.4375V6.5625C3.1538 6.5625 2.0625 7.6538 2.0625 9C2.0625 10.3462 3.1538 11.4375 4.5 11.4375V12.5625C2.53249 12.5625 0.9375 10.9675 0.9375 9Z" fill="#7E7F92"/>
<path fill-rule="evenodd" clip-rule="evenodd" d="M9 2.0625C6.82538 2.0625 5.0625 3.82538 5.0625 6V12C5.0625 12.3107 4.81066 12.5625 4.5 12.5625C4.18934 12.5625 3.9375 12.3107 3.9375 12V6C3.9375 3.20406 6.20407 0.9375 9 0.9375C11.7959 0.9375 14.0625 3.20406 14.0625 6V12C14.0625 14.7959 11.7959 17.0625 9 17.0625C8.68934 17.0625 8.4375 16.8107 8.4375 16.5C8.4375 16.1893 8.68934 15.9375 9 15.9375C11.1746 15.9375 12.9375 14.1746 12.9375 12V6C12.9375 3.82538 11.1746 2.0625 9 2.0625Z" fill="#7E7F92"/>
</g>
<defs>
<clipPath id="clip0_83_1223">
<rect width="18" height="18" fill="white"/>
</clipPath>
</defs>
</svg>
