<svg width="18" height="18" viewBox="0 0 18 18" fill="none" xmlns="http://www.w3.org/2000/svg">
<path fill-rule="evenodd" clip-rule="evenodd" d="M1.6875 3.2625C1.6875 2.39265 2.39265 1.6875 3.2625 1.6875H14.7375C15.6074 1.6875 16.3125 2.39265 16.3125 3.2625V14.7375C16.3125 15.6074 15.6074 16.3125 14.7375 16.3125H3.2625C2.39265 16.3125 1.6875 15.6074 1.6875 14.7375V3.2625ZM3.2625 2.8125C3.01397 2.8125 2.8125 3.01397 2.8125 3.2625V14.7375C2.8125 14.986 3.01397 15.1875 3.2625 15.1875H14.7375C14.986 15.1875 15.1875 14.986 15.1875 14.7375V3.2625C15.1875 3.01397 14.986 2.8125 14.7375 2.8125H3.2625Z" fill="#7E7F92"/>
<path fill-rule="evenodd" clip-rule="evenodd" d="M6.75 1.6875C7.06066 1.6875 7.3125 1.93934 7.3125 2.25V15.75C7.3125 16.0607 7.06066 16.3125 6.75 16.3125C6.43934 16.3125 6.1875 16.0607 6.1875 15.75V2.25C6.1875 1.93934 6.43934 1.6875 6.75 1.6875Z" fill="#7E7F92"/>
<path fill-rule="evenodd" clip-rule="evenodd" d="M11.25 1.6875C11.5607 1.6875 11.8125 1.93934 11.8125 2.25V15.75C11.8125 16.0607 11.5607 16.3125 11.25 16.3125C10.9393 16.3125 10.6875 16.0607 10.6875 15.75V2.25C10.6875 1.93934 10.9393 1.6875 11.25 1.6875Z" fill="#7E7F92"/>
<path fill-rule="evenodd" clip-rule="evenodd" d="M1.6875 6.75C1.6875 6.43934 1.93934 6.1875 2.25 6.1875H15.75C16.0607 6.1875 16.3125 6.43934 16.3125 6.75C16.3125 7.06066 16.0607 7.3125 15.75 7.3125H2.25C1.93934 7.3125 1.6875 7.06066 1.6875 6.75Z" fill="#7E7F92"/>
<path fill-rule="evenodd" clip-rule="evenodd" d="M1.6875 11.25C1.6875 10.9393 1.93934 10.6875 2.25 10.6875H15.75C16.0607 10.6875 16.3125 10.9393 16.3125 11.25C16.3125 11.5607 16.0607 11.8125 15.75 11.8125H2.25C1.93934 11.8125 1.6875 11.5607 1.6875 11.25Z" fill="#7E7F92"/>
</svg>
