<svg width="18" height="18" viewBox="0 0 18 18" fill="none" xmlns="http://www.w3.org/2000/svg">
<path fill-rule="evenodd" clip-rule="evenodd" d="M5.25 2.0625C4.93934 2.0625 4.6875 2.31434 4.6875 2.625V15.375C4.6875 15.6857 4.93934 15.9375 5.25 15.9375H12.75C13.0607 15.9375 13.3125 15.6857 13.3125 15.375V2.625C13.3125 2.31434 13.0607 2.0625 12.75 2.0625H5.25ZM3.5625 2.625C3.5625 1.69302 4.31802 0.9375 5.25 0.9375H12.75C13.682 0.9375 14.4375 1.69302 14.4375 2.625V15.375C14.4375 16.307 13.682 17.0625 12.75 17.0625H5.25C4.31802 17.0625 3.5625 16.307 3.5625 15.375V2.625Z" fill="#7E7F92"/>
<path fill-rule="evenodd" clip-rule="evenodd" d="M7.6875 3.75C7.6875 3.43934 7.93934 3.1875 8.25 3.1875H9.75C10.0607 3.1875 10.3125 3.43934 10.3125 3.75C10.3125 4.06066 10.0607 4.3125 9.75 4.3125H8.25C7.93934 4.3125 7.6875 4.06066 7.6875 3.75Z" fill="#7E7F92"/>
<path fill-rule="evenodd" clip-rule="evenodd" d="M6.9375 14.25C6.9375 13.9393 7.18934 13.6875 7.5 13.6875H10.5C10.8107 13.6875 11.0625 13.9393 11.0625 14.25C11.0625 14.5607 10.8107 14.8125 10.5 14.8125H7.5C7.18934 14.8125 6.9375 14.5607 6.9375 14.25Z" fill="#7E7F92"/>
</svg>
