<svg width="18" height="18" viewBox="0 0 18 18" fill="none" xmlns="http://www.w3.org/2000/svg">
<path fill-rule="evenodd" clip-rule="evenodd" d="M3.375 2.8125C3.06434 2.8125 2.8125 3.06434 2.8125 3.375V14.625C2.8125 14.9357 3.06434 15.1875 3.375 15.1875H14.625C14.9357 15.1875 15.1875 14.9357 15.1875 14.625V3.375C15.1875 3.06434 14.9357 2.8125 14.625 2.8125H3.375ZM1.6875 3.375C1.6875 2.44302 2.44302 1.6875 3.375 1.6875H14.625C15.557 1.6875 16.3125 2.44302 16.3125 3.375V14.625C16.3125 15.557 15.557 16.3125 14.625 16.3125H3.375C2.44302 16.3125 1.6875 15.557 1.6875 14.625V3.375Z" fill="#7E7F92"/>
<path fill-rule="evenodd" clip-rule="evenodd" d="M1.6875 6C1.6875 5.68934 1.93934 5.4375 2.25 5.4375H15.75C16.0607 5.4375 16.3125 5.68934 16.3125 6C16.3125 6.31066 16.0607 6.5625 15.75 6.5625H2.25C1.93934 6.5625 1.6875 6.31066 1.6875 6Z" fill="#7E7F92"/>
<path fill-rule="evenodd" clip-rule="evenodd" d="M2.25 4.3125C2.56066 4.3125 2.8125 4.56434 2.8125 4.875V7.125C2.8125 7.43566 2.56066 7.6875 2.25 7.6875C1.93934 7.6875 1.6875 7.43566 1.6875 7.125V4.875C1.6875 4.56434 1.93934 4.3125 2.25 4.3125Z" fill="#7E7F92"/>
<path fill-rule="evenodd" clip-rule="evenodd" d="M15.75 4.3125C16.0607 4.3125 16.3125 4.56434 16.3125 4.875V7.125C16.3125 7.43566 16.0607 7.6875 15.75 7.6875C15.4393 7.6875 15.1875 7.43566 15.1875 7.125V4.875C15.1875 4.56434 15.4393 4.3125 15.75 4.3125Z" fill="#7E7F92"/>
<path fill-rule="evenodd" clip-rule="evenodd" d="M5.8125 11.25C5.8125 10.9393 6.06434 10.6875 6.375 10.6875H15.75C16.0607 10.6875 16.3125 10.9393 16.3125 11.25C16.3125 11.5607 16.0607 11.8125 15.75 11.8125H6.375C6.06434 11.8125 5.8125 11.5607 5.8125 11.25Z" fill="#7E7F92"/>
<path fill-rule="evenodd" clip-rule="evenodd" d="M6.375 5.4375C6.68566 5.4375 6.9375 5.68934 6.9375 6V15.75C6.9375 16.0607 6.68566 16.3125 6.375 16.3125C6.06434 16.3125 5.8125 16.0607 5.8125 15.75V6C5.8125 5.68934 6.06434 5.4375 6.375 5.4375Z" fill="#7E7F92"/>
<path fill-rule="evenodd" clip-rule="evenodd" d="M4.6875 15.75C4.6875 15.4393 4.93934 15.1875 5.25 15.1875H7.5C7.81066 15.1875 8.0625 15.4393 8.0625 15.75C8.0625 16.0607 7.81066 16.3125 7.5 16.3125H5.25C4.93934 16.3125 4.6875 16.0607 4.6875 15.75Z" fill="#7E7F92"/>
<path fill-rule="evenodd" clip-rule="evenodd" d="M15.75 9.5625C16.0607 9.5625 16.3125 9.81434 16.3125 10.125V12.375C16.3125 12.6857 16.0607 12.9375 15.75 12.9375C15.4393 12.9375 15.1875 12.6857 15.1875 12.375V10.125C15.1875 9.81434 15.4393 9.5625 15.75 9.5625Z" fill="#7E7F92"/>
</svg>
