<svg width="18" height="18" viewBox="0 0 18 18" fill="none" xmlns="http://www.w3.org/2000/svg">
<path fill-rule="evenodd" clip-rule="evenodd" d="M3.375 2.8125C3.06434 2.8125 2.8125 3.06434 2.8125 3.375V14.625C2.8125 14.9357 3.06434 15.1875 3.375 15.1875H14.625C14.9357 15.1875 15.1875 14.9357 15.1875 14.625V3.375C15.1875 3.06434 14.9357 2.8125 14.625 2.8125H3.375ZM1.6875 3.375C1.6875 2.44302 2.44302 1.6875 3.375 1.6875H14.625C15.557 1.6875 16.3125 2.44302 16.3125 3.375V14.625C16.3125 15.557 15.557 16.3125 14.625 16.3125H3.375C2.44302 16.3125 1.6875 15.557 1.6875 14.625V3.375Z" fill="#7E7F92"/>
<path fill-rule="evenodd" clip-rule="evenodd" d="M1.6875 10.5C1.6875 10.1893 1.93934 9.9375 2.25 9.9375H9C9.31066 9.9375 9.5625 10.1893 9.5625 10.5C9.5625 10.8107 9.31066 11.0625 9 11.0625H2.25C1.93934 11.0625 1.6875 10.8107 1.6875 10.5Z" fill="#7E7F92"/>
<path fill-rule="evenodd" clip-rule="evenodd" d="M8.4375 7.5C8.4375 7.18934 8.68934 6.9375 9 6.9375H15.75C16.0607 6.9375 16.3125 7.18934 16.3125 7.5C16.3125 7.81066 16.0607 8.0625 15.75 8.0625H9C8.68934 8.0625 8.4375 7.81066 8.4375 7.5Z" fill="#7E7F92"/>
<path fill-rule="evenodd" clip-rule="evenodd" d="M2.25 8.8125C2.56066 8.8125 2.8125 9.06434 2.8125 9.375V11.625C2.8125 11.9357 2.56066 12.1875 2.25 12.1875C1.93934 12.1875 1.6875 11.9357 1.6875 11.625V9.375C1.6875 9.06434 1.93934 8.8125 2.25 8.8125Z" fill="#7E7F92"/>
<path fill-rule="evenodd" clip-rule="evenodd" d="M15.75 5.8125C16.0607 5.8125 16.3125 6.06434 16.3125 6.375V8.625C16.3125 8.93566 16.0607 9.1875 15.75 9.1875C15.4393 9.1875 15.1875 8.93566 15.1875 8.625V6.375C15.1875 6.06434 15.4393 5.8125 15.75 5.8125Z" fill="#7E7F92"/>
<path fill-rule="evenodd" clip-rule="evenodd" d="M9 1.6875C9.31066 1.6875 9.5625 1.93934 9.5625 2.25V15.75C9.5625 16.0607 9.31066 16.3125 9 16.3125C8.68934 16.3125 8.4375 16.0607 8.4375 15.75V2.25C8.4375 1.93934 8.68934 1.6875 9 1.6875Z" fill="#7E7F92"/>
<path fill-rule="evenodd" clip-rule="evenodd" d="M7.3125 2.25C7.3125 1.93934 7.56434 1.6875 7.875 1.6875H10.125C10.4357 1.6875 10.6875 1.93934 10.6875 2.25C10.6875 2.56066 10.4357 2.8125 10.125 2.8125H7.875C7.56434 2.8125 7.3125 2.56066 7.3125 2.25Z" fill="#7E7F92"/>
<path fill-rule="evenodd" clip-rule="evenodd" d="M7.3125 15.75C7.3125 15.4393 7.56434 15.1875 7.875 15.1875H10.125C10.4357 15.1875 10.6875 15.4393 10.6875 15.75C10.6875 16.0607 10.4357 16.3125 10.125 16.3125H7.875C7.56434 16.3125 7.3125 16.0607 7.3125 15.75Z" fill="#7E7F92"/>
</svg>
