<svg width="18" height="18" viewBox="0 0 18 18" fill="none" xmlns="http://www.w3.org/2000/svg">
<g clip-path="url(#clip0_83_1153)">
<path fill-rule="evenodd" clip-rule="evenodd" d="M0.9375 9C0.9375 4.5472 4.5472 0.9375 9 0.9375C13.4528 0.9375 17.0625 4.5472 17.0625 9C17.0625 13.4528 13.4528 17.0625 9 17.0625C4.5472 17.0625 0.9375 13.4528 0.9375 9ZM9 2.0625C5.16852 2.0625 2.0625 5.16852 2.0625 9C2.0625 12.8315 5.16852 15.9375 9 15.9375C12.8315 15.9375 15.9375 12.8315 15.9375 9C15.9375 5.16852 12.8315 2.0625 9 2.0625Z" fill="#7E7F92"/>
<path fill-rule="evenodd" clip-rule="evenodd" d="M6.5625 6.75C6.5625 5.40381 7.65381 4.3125 9 4.3125C10.3462 4.3125 11.4375 5.40381 11.4375 6.75C11.4375 8.09619 10.3462 9.1875 9 9.1875C7.65381 9.1875 6.5625 8.09619 6.5625 6.75ZM9 5.4375C8.27514 5.4375 7.6875 6.02514 7.6875 6.75C7.6875 7.47486 8.27514 8.0625 9 8.0625C9.72486 8.0625 10.3125 7.47486 10.3125 6.75C10.3125 6.02514 9.72486 5.4375 9 5.4375Z" fill="#7E7F92"/>
<path fill-rule="evenodd" clip-rule="evenodd" d="M7.49983 11.4375C5.81119 11.4375 4.42888 12.7509 4.31936 14.4115C4.29891 14.7215 4.03105 14.9562 3.72106 14.9358C3.41107 14.9153 3.17635 14.6475 3.1968 14.3375C3.34505 12.0895 5.21467 10.3125 7.49983 10.3125H10.4998C12.782 10.3125 14.6497 12.0848 14.8023 14.3286C14.8234 14.6385 14.5892 14.9069 14.2793 14.9279C13.9693 14.949 13.701 14.7149 13.6799 14.4049C13.5672 12.7474 12.1862 11.4375 10.4998 11.4375H7.49983Z" fill="#7E7F92"/>
</g>
<defs>
<clipPath id="clip0_83_1153">
<rect width="18" height="18" fill="white"/>
</clipPath>
</defs>
</svg>
