<svg width="50" height="50" viewBox="0 0 50 50" fill="none" xmlns="http://www.w3.org/2000/svg">
<path d="M46.0937 44.1404H42.8592V18.5781C42.8592 18.3709 42.7769 18.1722 42.6304 18.0257C42.4838 17.8792 42.2851 17.7969 42.0779 17.7969H37.062C36.8548 17.7969 36.6561 17.8792 36.5096 18.0257C36.3631 18.1722 36.2808 18.3709 36.2808 18.5781V44.1404H33.1458V23.5941C33.1458 23.3869 33.0635 23.1882 32.917 23.0417C32.7705 22.8951 32.5718 22.8128 32.3646 22.8128H27.3486C27.1414 22.8128 26.9427 22.8951 26.7962 23.0417C26.6497 23.1882 26.5674 23.3869 26.5674 23.5941V44.1404H23.4325V28.6894C23.4325 28.4822 23.3502 28.2835 23.2036 28.1369C23.0571 27.9904 22.8584 27.9081 22.6512 27.9081H17.6353C17.4281 27.9081 17.2294 27.9904 17.0829 28.137C16.9363 28.2835 16.854 28.4822 16.854 28.6894V44.1404H13.7191V33.626C13.7191 33.4188 13.6368 33.2201 13.4903 33.0736C13.3438 32.927 13.1451 32.8447 12.9379 32.8447H7.92192C7.71472 32.8447 7.51601 32.927 7.3695 33.0735C7.22299 33.2201 7.14068 33.4188 7.14067 33.626V44.1404H3.90618C3.70116 44.1437 3.50566 44.2275 3.36185 44.3737C3.21804 44.5198 3.13745 44.7166 3.13745 44.9217C3.13746 45.1267 3.21806 45.3236 3.36188 45.4697C3.5057 45.6159 3.70121 45.6996 3.90623 45.7029C9.76534 45.7029 43.899 45.7116 46.0936 45.7029C46.2982 45.6989 46.493 45.6149 46.6363 45.4688C46.7796 45.3227 46.8598 45.1263 46.8598 44.9217C46.8598 44.7171 46.7796 44.5207 46.6363 44.3746C46.4931 44.2285 46.2982 44.1444 46.0937 44.1404ZM8.70317 44.1404V34.4072H12.1566V44.1404H8.70317ZM18.4165 44.1404V29.4706H21.87V44.1404H18.4165ZM28.1299 44.1404V24.3753H31.5833V44.1404H28.1299ZM37.8432 44.1404V19.3594H41.2967V44.1404H37.8432Z" fill="#3F52E3"/>
<path d="M7.36759 28.8169C7.42253 29.0165 7.55444 29.1863 7.73437 29.2888C7.9143 29.3914 8.12757 29.4184 8.32737 29.3639C20.6992 26.0334 31.9256 18.505 38.9925 8.02255L39.3428 9.6705C39.3893 9.86966 39.5121 10.0426 39.6847 10.1523C39.8574 10.2619 40.0661 10.2995 40.2662 10.257C40.4662 10.2144 40.6416 10.0951 40.7547 9.92469C40.8677 9.75426 40.9095 9.5463 40.8709 9.34545L40.1335 5.8764C40.0835 5.67503 39.958 5.50058 39.783 5.38917C39.6079 5.27775 39.3968 5.23788 39.1932 5.27781L35.7379 6.01219C35.5352 6.05529 35.358 6.17712 35.2452 6.35089C35.1323 6.52466 35.0932 6.73613 35.1363 6.93878C35.1794 7.14142 35.3012 7.31865 35.475 7.43147C35.6487 7.54429 35.8602 7.58346 36.0629 7.54036L37.6636 7.20014C30.7985 17.3505 19.9107 24.6255 7.9146 27.857C7.71479 27.9118 7.54492 28.0437 7.44233 28.2237C7.33975 28.4037 7.31287 28.617 7.36759 28.8169Z" fill="#3F52E3"/>
<path d="M14.0576 21.4839C16.336 21.4813 18.5204 20.5751 20.1315 18.964C21.7426 17.3529 22.6488 15.1686 22.6514 12.8902C22.1793 1.48937 5.93418 1.49269 5.46387 12.8902C5.46646 15.1686 6.37271 17.353 7.98379 18.964C9.59487 20.5751 11.7792 21.4813 14.0576 21.4839ZM14.0576 5.8589C15.9218 5.86107 17.7089 6.60255 19.0271 7.9207C20.3452 9.23884 21.0867 11.026 21.0889 12.8902C20.7197 22.2112 7.39413 22.2086 7.02637 12.8901C7.02855 11.026 7.77004 9.2388 9.08819 7.92067C10.4063 6.60254 12.1935 5.86107 14.0576 5.8589Z" fill="#3F52E3"/>
<path d="M14.0576 16.2583C13.7148 16.2579 13.3861 16.1215 13.1437 15.8791C12.9012 15.6367 12.7649 15.308 12.7644 14.9651C12.7604 14.7606 12.6764 14.5657 12.5303 14.4225C12.3842 14.2792 12.1878 14.199 11.9832 14.199C11.7786 14.199 11.5821 14.2792 11.436 14.4225C11.29 14.5658 11.2059 14.7606 11.2019 14.9652C11.204 15.5842 11.4076 16.1858 11.7819 16.6789C12.1561 17.172 12.6807 17.5299 13.2764 17.6985C13.217 18.2611 13.3979 18.8407 14.0577 18.858C14.7192 18.8358 14.8969 18.2683 14.8388 17.6984C15.4954 17.5058 16.0609 17.0834 16.432 16.5085C16.8032 15.9336 16.9552 15.2444 16.8605 14.5667C16.7658 13.889 16.4305 13.268 15.916 12.8169C15.4014 12.3658 14.7418 12.1147 14.0575 12.1094C13.8018 12.1094 13.5518 12.0336 13.3391 11.8915C13.1264 11.7494 12.9607 11.5474 12.8628 11.3111C12.765 11.0748 12.7394 10.8148 12.7893 10.5639C12.8392 10.3131 12.9624 10.0827 13.1432 9.90181C13.3241 9.72096 13.5545 9.59781 13.8054 9.54792C14.0562 9.49802 14.3162 9.52364 14.5525 9.62152C14.7888 9.7194 14.9908 9.88515 15.1329 10.0978C15.275 10.3105 15.3508 10.5605 15.3508 10.8163C15.3547 11.0209 15.4387 11.2158 15.5848 11.3592C15.7309 11.5025 15.9274 11.5828 16.1321 11.5828C16.3367 11.5828 16.5332 11.5025 16.6793 11.3591C16.8254 11.2158 16.9094 11.0208 16.9133 10.8162C16.9112 10.1972 16.7076 9.59561 16.3334 9.10249C15.9591 8.60937 15.4345 8.25147 14.8389 8.08289V7.70462C14.8349 7.50006 14.7508 7.30522 14.6047 7.16197C14.4586 7.01871 14.2622 6.93847 14.0576 6.93848C13.853 6.93848 13.6565 7.01874 13.5105 7.162C13.3644 7.30526 13.2803 7.50011 13.2764 7.70467V8.08289C12.6139 8.26987 12.0415 8.69046 11.6652 9.26685C11.2889 9.84324 11.134 10.5364 11.2293 11.2182C11.3246 11.8999 11.6636 12.524 12.1836 12.9752C12.7035 13.4263 13.3692 13.6738 14.0576 13.6719C14.3973 13.6769 14.7215 13.8153 14.9599 14.0573C15.1984 14.2993 15.3321 14.6254 15.3321 14.9651C15.3321 15.3049 15.1984 15.631 14.9599 15.873C14.7215 16.115 14.3973 16.2534 14.0576 16.2583Z" fill="#3F52E3"/>
</svg>
