<svg width="50" height="50" viewBox="0 0 50 50" fill="none" xmlns="http://www.w3.org/2000/svg">
<g clip-path="url(#clip0_932_5201)">
<path d="M26.1432 12.4305C26.0388 12.0118 26.2936 11.5878 26.7122 11.4834C27.131 11.379 27.5549 11.6338 27.6593 12.0524C27.9002 13.0187 28.8977 13.3387 29.6762 13.321C30.3579 13.3047 30.9919 13.0706 31.2913 12.7243C31.4534 12.5369 31.5133 12.3205 31.4797 12.0435C31.4231 11.5772 31.1431 11.0066 29.4667 10.7313C27.0196 10.3296 26.4484 9.05703 26.4001 8.06026C26.3331 6.68125 27.289 5.52774 28.7785 5.18994C28.7871 5.18799 28.7957 5.18604 28.8044 5.18418V4.6957C28.8044 4.26426 29.1542 3.91445 29.5857 3.91445C30.0171 3.91445 30.3669 4.26426 30.3669 4.6957V5.17735C31.3457 5.37998 32.2837 5.98945 32.7694 7.14629C32.9364 7.54414 32.7494 8.00205 32.3516 8.16904C31.9537 8.33623 31.4958 8.14893 31.3288 7.75117C30.9216 6.78145 29.928 6.53145 29.1242 6.71377C28.5384 6.84658 27.9251 7.25029 27.9608 7.98457C27.9731 8.23721 28.0056 8.90811 29.7199 9.18955C31.7425 9.52158 32.8564 10.4185 33.0309 11.8551C33.1177 12.5702 32.9249 13.2243 32.4732 13.7464C31.9972 14.2968 31.237 14.6794 30.367 14.8223V15.2855C30.367 15.7169 30.0172 16.0667 29.5858 16.0667C29.1543 16.0667 28.8045 15.7169 28.8045 15.2855V14.8097C27.4745 14.5556 26.4522 13.6694 26.1432 12.4305ZM4.65597 33.8343C4.17248 33.905 3.83791 34.3542 3.90851 34.8376C3.97922 35.3211 4.42843 35.6557 4.91193 35.5851C5.39543 35.5144 5.73 35.0651 5.65929 34.5816C5.58859 34.0983 5.13937 33.7636 4.65597 33.8343ZM47.7501 34.5983L31.7231 44.4671C30.6229 45.1445 29.4537 45.4841 28.2309 45.4841C27.6175 45.4841 26.9907 45.3986 26.3521 45.2276L15.0398 42.1964L13.5391 43.0628L14.4369 44.6492C14.7101 45.1319 14.7785 45.6933 14.6298 46.2301C14.4811 46.7669 14.1333 47.2129 13.6506 47.4861L11.1727 48.8885C10.8569 49.0672 10.5075 49.1582 10.1533 49.1582C9.96603 49.1582 9.77746 49.1327 9.59181 49.0813C9.055 48.9325 8.609 48.5848 8.33586 48.1021L1.0509 35.23C0.777752 34.7474 0.709295 34.186 0.858025 33.6491C1.00676 33.1123 1.35451 32.6663 1.83713 32.3932L4.31506 30.9908C5.31398 30.4255 6.58654 30.7782 7.15187 31.7771L7.62804 32.6185L14.1994 28.8113C15.8995 27.8264 17.9425 26.9184 20.2038 27.6519C20.5126 27.752 20.8521 27.8696 21.2106 27.9969C20.7317 27.4941 20.4368 26.8146 20.4368 26.0671V24.5842C20.4368 23.7911 20.7687 23.0745 21.3002 22.5644C20.7687 22.0543 20.4368 21.3377 20.4368 20.5445V19.0616C20.4368 17.6163 21.5373 16.4232 22.9443 16.2761C21.391 14.6357 20.4368 12.4225 20.4368 9.99043C20.4368 4.9459 24.5409 0.841797 29.5855 0.841797C34.6301 0.841797 38.7342 4.9459 38.7342 9.99043C38.7342 12.4225 37.78 14.6357 36.2267 16.2761C37.6337 16.4233 38.7342 17.6163 38.7342 19.0616V20.5445C38.7342 21.3376 38.4023 22.0542 37.8708 22.5644C38.4023 23.0744 38.7342 23.791 38.7342 24.5842V26.0671C38.7342 26.8602 38.4023 27.5768 37.8708 28.0869C38.4023 28.597 38.7342 29.3136 38.7342 30.1067V31.2272L41.3565 29.6998C46.3633 26.7838 48.2598 29.0739 48.7217 29.8452C49.6731 31.434 49.2101 33.6994 47.7501 34.5983ZM29.5855 17.5769C33.7685 17.5769 37.1717 14.1737 37.1717 9.99063C37.1717 5.80762 33.7686 2.40449 29.5855 2.40449C25.4024 2.40449 21.9993 5.80762 21.9993 9.99063C21.9993 14.1736 25.4024 17.5769 29.5855 17.5769ZM21.9994 20.5448C21.9994 21.2277 22.555 21.7834 23.238 21.7834H35.9332C36.6161 21.7834 37.1718 21.2278 37.1718 20.5448V19.0619C37.1718 18.379 36.6162 17.8233 35.9332 17.8233H34.3083C32.9288 18.6582 31.3123 19.1394 29.5856 19.1394C27.8588 19.1394 26.2423 18.6583 24.8628 17.8233H23.238C22.5551 17.8233 21.9994 18.3789 21.9994 19.0619V20.5448ZM21.9994 26.0672C21.9994 26.7501 22.555 27.3058 23.238 27.3058H35.9332C36.6161 27.3058 37.1718 26.7502 37.1718 26.0672V24.5843C37.1718 23.9014 36.6162 23.3457 35.9332 23.3457H23.2379C22.555 23.3457 21.9993 23.9013 21.9993 24.5843V26.0672H21.9994ZM35.9331 32.8282C35.9518 32.8282 35.9704 32.827 35.9891 32.8261L36.9779 32.2501C37.1046 32.0523 37.1717 31.8265 37.1717 31.5897V30.1067C37.1717 29.4238 36.6161 28.8682 35.9331 28.8682H23.6439C25.3358 29.46 27.2489 30.0683 29.182 30.4169C29.2166 30.4232 29.2509 30.4317 29.2843 30.4426C30.4529 30.8215 31.288 31.7478 31.5678 32.8281H35.9331V32.8282ZM31.5757 34.3907C31.5712 34.4088 31.5675 34.4268 31.5626 34.4448C31.4684 34.7965 31.3318 35.1136 31.1578 35.3933C31.6293 35.2848 32.081 35.1023 32.5249 34.8438L33.3026 34.3907H31.5757ZM13.0771 45.4189L5.79211 32.5468C5.69787 32.3803 5.51789 32.2855 5.33527 32.2855C5.24943 32.2855 5.163 32.3064 5.08468 32.3507L2.60685 33.753C2.48742 33.8206 2.40119 33.9319 2.36379 34.0665C2.32648 34.2011 2.34318 34.341 2.41076 34.4604L9.69572 47.3324C9.7633 47.4519 9.87462 47.5382 10.0092 47.5755C10.1439 47.6128 10.2837 47.5962 10.403 47.5285L12.881 46.1261C13.0004 46.0585 13.0867 45.9472 13.124 45.8126C13.1613 45.678 13.1446 45.5383 13.0771 45.4189ZM47.3812 30.6482C46.6446 29.4184 44.6863 29.5687 42.1429 31.05L33.3113 36.194C31.9565 36.9829 30.4998 37.2387 28.8577 36.9761L27.6278 36.7792C27.6023 36.7751 24.9885 36.0793 23.7414 35.7437C23.1076 35.5731 22.4739 35.4025 21.8401 35.2328C21.4234 35.1211 21.176 34.6928 21.2877 34.276C21.3994 33.8592 21.8281 33.6121 22.2445 33.7235C22.8789 33.8936 23.5131 34.0642 24.1474 34.2349C25.38 34.5665 26.6539 34.9094 27.9081 35.2411C28.718 35.3582 29.7324 35.2386 30.0534 34.0404C30.2894 33.1602 29.7725 32.2673 28.8482 31.9444C26.2 31.4603 23.6474 30.5374 21.5936 29.7949C20.8773 29.5359 20.2586 29.3123 19.7218 29.1382C18.0485 28.5953 16.4552 29.3103 14.9826 30.1634L8.39767 33.9784L12.7693 41.7029L14.5386 40.6815C14.718 40.5778 14.9313 40.5498 15.1315 40.6034L26.7564 43.7184C28.2368 44.1152 29.6321 43.9194 30.9037 43.1366L46.9308 33.2678C47.6616 32.8179 47.8889 31.4958 47.3812 30.6482Z" fill="#24D6A5"/>
</g>
<defs>
<clipPath id="clip0_932_5201">
<rect width="50" height="50" fill="white"/>
</clipPath>
</defs>
</svg>
