<svg width="18" height="18" viewBox="0 0 18 18" fill="none" xmlns="http://www.w3.org/2000/svg">
<path fill-rule="evenodd" clip-rule="evenodd" d="M3 2.0625C2.68934 2.0625 2.4375 2.31434 2.4375 2.625V15.375C2.4375 15.6857 2.68934 15.9375 3 15.9375H12.5625V2.625C12.5625 2.31434 12.3107 2.0625 12 2.0625H3ZM1.3125 2.625C1.3125 1.69302 2.06802 0.9375 3 0.9375H12C12.932 0.9375 13.6875 1.69303 13.6875 2.625V16.5C13.6875 16.8107 13.4357 17.0625 13.125 17.0625H3C2.06803 17.0625 1.3125 16.307 1.3125 15.375V2.625Z" fill="#7E7F92"/>
<path fill-rule="evenodd" clip-rule="evenodd" d="M13.875 8.8125C13.7714 8.8125 13.6875 8.89644 13.6875 9V15.9375H15C15.3107 15.9375 15.5625 15.6857 15.5625 15.375V9C15.5625 8.89644 15.4786 8.8125 15.375 8.8125H13.875ZM12.5625 9C12.5625 8.27511 13.1501 7.6875 13.875 7.6875H15.375C16.0999 7.6875 16.6875 8.27511 16.6875 9V15.375C16.6875 16.307 15.932 17.0625 15 17.0625H13.125C12.8143 17.0625 12.5625 16.8107 12.5625 16.5V9Z" fill="#7E7F92"/>
<path fill-rule="evenodd" clip-rule="evenodd" d="M3.5625 4.5C3.5625 4.18934 3.81434 3.9375 4.125 3.9375H7.125C7.43566 3.9375 7.6875 4.18934 7.6875 4.5C7.6875 4.81066 7.43566 5.0625 7.125 5.0625H4.125C3.81434 5.0625 3.5625 4.81066 3.5625 4.5Z" fill="#7E7F92"/>
<path fill-rule="evenodd" clip-rule="evenodd" d="M3.5625 7.125C3.5625 6.81434 3.81434 6.5625 4.125 6.5625H8.625C8.93566 6.5625 9.1875 6.81434 9.1875 7.125C9.1875 7.43566 8.93566 7.6875 8.625 7.6875H4.125C3.81434 7.6875 3.5625 7.43566 3.5625 7.125Z" fill="#7E7F92"/>
</svg>
