<svg width="18" height="18" viewBox="0 0 18 18" fill="none" xmlns="http://www.w3.org/2000/svg">
<path fill-rule="evenodd" clip-rule="evenodd" d="M1.6875 10.875C1.6875 10.5643 1.93934 10.3125 2.25 10.3125H7.5C7.81066 10.3125 8.0625 10.5643 8.0625 10.875V16.125C8.0625 16.4357 7.81066 16.6875 7.5 16.6875H2.25C1.93934 16.6875 1.6875 16.4357 1.6875 16.125V10.875ZM2.8125 11.4375V15.5625H6.9375V11.4375H2.8125Z" fill="#7E7F92"/>
<path fill-rule="evenodd" clip-rule="evenodd" d="M9 0.9375C9.19933 0.9375 9.38377 1.04299 9.48484 1.2148L13.2348 7.5898C13.3371 7.76372 13.3385 7.97911 13.2383 8.15427C13.1381 8.32942 12.9518 8.4375 12.75 8.4375H5.25C5.04822 8.4375 4.8619 8.32942 4.76172 8.15427C4.66154 7.97911 4.66286 7.76372 4.76516 7.5898L8.51516 1.2148C8.61623 1.04299 8.80067 0.9375 9 0.9375ZM6.23348 7.3125H11.7665L9 2.60942L6.23348 7.3125Z" fill="#7E7F92"/>
<path fill-rule="evenodd" clip-rule="evenodd" d="M13.5 11.0625C12.1538 11.0625 11.0625 12.1538 11.0625 13.5C11.0625 14.8462 12.1538 15.9375 13.5 15.9375C14.8462 15.9375 15.9375 14.8462 15.9375 13.5C15.9375 12.1538 14.8462 11.0625 13.5 11.0625ZM9.9375 13.5C9.9375 11.5325 11.5325 9.9375 13.5 9.9375C15.4675 9.9375 17.0625 11.5325 17.0625 13.5C17.0625 15.4675 15.4675 17.0625 13.5 17.0625C11.5325 17.0625 9.9375 15.4675 9.9375 13.5Z" fill="#7E7F92"/>
</svg>
