<svg width="30" height="30" viewBox="0 0 30 30" fill="none" xmlns="http://www.w3.org/2000/svg">
<g clip-path="url(#clip0_258_2698)">
<path d="M15 30C23.2843 30 30 23.2843 30 15C30 6.71573 23.2843 0 15 0C6.71573 0 0 6.71573 0 15C0 23.2843 6.71573 30 15 30Z" fill="#F0F0F0"/>
<path d="M3.42871 5.45461H26.5714C25.7166 4.41955 24.7252 3.50168 23.6255 2.72736H6.37463C5.27488 3.50156 4.28354 4.41949 3.42871 5.45461Z" fill="#F0F0F0"/>
<path d="M0 15C0 15.4598 0.0218555 15.9144 0.0623438 16.3637H29.9377C29.9781 15.9144 30 15.4598 30 15C30 14.5402 29.9781 14.0856 29.9377 13.6364H0.0623438C0.0218555 14.0856 0 14.5402 0 15H0Z" fill="#F0F0F0"/>
<path d="M1.63531 21.8181H28.3639C28.8056 20.9541 29.1658 20.0418 29.4348 19.091H0.564453C0.83334 20.0418 1.19369 20.9542 1.63531 21.8181Z" fill="#F0F0F0"/>
<path d="M6.37463 27.2728H23.6254C24.7251 26.4984 25.7165 25.5806 26.5713 24.5455H3.42871C4.28354 25.5804 5.27488 26.4984 6.37463 27.2728Z" fill="#F0F0F0"/>
<path d="M0.564453 10.9091H29.4349C29.1659 9.95824 28.8056 9.04582 28.364 8.18186H1.63537C1.19375 9.04582 0.833398 9.95824 0.564453 10.9091Z" fill="#F0F0F0"/>
<path d="M7.17383 2.72725H23.6253C21.1855 1.00939 18.2107 0 14.9999 0C13.0434 0 9.61367 1.00939 7.17383 2.72725Z" fill="#D80027"/>
<path d="M14.3477 8.18186H28.3641C27.8653 7.20609 27.2628 6.29209 26.5711 5.45461H14.3477V8.18186Z" fill="#D80027"/>
<path d="M14.3477 13.6364H29.9375C29.8531 12.7 29.6835 11.788 29.435 10.9092H14.3477V13.6364Z" fill="#D80027"/>
<path d="M0.565 19.091H29.4353C29.6839 18.2122 29.8534 17.3002 29.9378 16.3637H0.0625C0.146875 17.3002 0.316445 18.2121 0.565 19.091Z" fill="#D80027"/>
<path d="M3.42871 24.5454H26.5714C27.2631 23.7078 27.8655 22.7938 28.3643 21.8181H1.63574C2.13455 22.7939 2.73701 23.7079 3.42871 24.5454Z" fill="#D80027"/>
<path d="M15.0004 30C18.2112 30 21.186 28.9906 23.6258 27.2728H6.375C8.81484 28.9906 11.7896 30 15.0004 30Z" fill="#D80027"/>
<path d="M0.564941 10.9091C0.316387 11.788 0.146875 12.6999 0.0625 13.6363H15.0002V0C8.13414 0 2.34572 4.6132 0.564941 10.9091Z" fill="#0052B4"/>
<path d="M8.92885 3.91307L9.90004 6.90223H13.0434L10.5005 8.7498L11.4716 11.7391L8.92885 9.89168L6.38594 11.7391L7.3573 8.7498L4.81445 6.90223H7.9576L8.92885 3.91307Z" fill="#F0F0F0"/>
</g>
<defs>
<clipPath id="clip0_258_2698">
<rect width="30" height="30" fill="white"/>
</clipPath>
</defs>
</svg>
