<svg width="40" height="40" viewBox="0 0 40 40" fill="none" xmlns="http://www.w3.org/2000/svg">
<path d="M36.6212 23.3672L31.0094 19.9999L36.6222 16.6316C36.7806 16.5363 36.9117 16.4017 37.0027 16.2408C37.0937 16.0799 37.1415 15.8983 37.1415 15.7134C37.1415 15.5286 37.0937 15.3469 37.0027 15.186C36.9117 15.0251 36.7806 14.8905 36.6222 14.7953L20.5518 5.153C20.3852 5.05289 20.1944 5 20 5C19.8057 5 19.6149 5.05289 19.4483 5.153L3.37785 14.7953C3.21945 14.8905 3.08838 15.0251 2.99739 15.186C2.9064 15.3469 2.85858 15.5286 2.85858 15.7134C2.85858 15.8983 2.9064 16.0799 2.99739 16.2408C3.08838 16.4017 3.21945 16.5363 3.37785 16.6316L8.99072 19.9999L3.37892 23.3672C3.22052 23.4625 3.08945 23.5971 2.99846 23.758C2.90747 23.9189 2.85965 24.1006 2.85965 24.2854C2.85965 24.4702 2.90747 24.6519 2.99846 24.8128C3.08945 24.9737 3.22052 25.1083 3.37892 25.2036L19.4494 34.8458C19.616 34.9459 19.8067 34.9988 20.0011 34.9988C20.1955 34.9988 20.3862 34.9459 20.5529 34.8458L36.6233 25.2036C36.7817 25.1083 36.9128 24.9737 37.0038 24.8128C37.0948 24.6519 37.1426 24.4702 37.1426 24.2854C37.1426 24.1006 37.0948 23.9189 37.0038 23.758C36.9128 23.5971 36.7817 23.4625 36.6233 23.3672H36.6212ZM20 7.32144L33.9878 15.7145L20 24.1076L6.01233 15.7145L20 7.32144ZM20 32.6785L6.01233 24.2854L11.0735 21.2502L19.4483 26.2749C19.6149 26.375 19.8057 26.4279 20 26.4279C20.1944 26.4279 20.3852 26.375 20.5518 26.2749L28.9266 21.2502L33.9878 24.2854L20 32.6785Z" fill="#556068"/>
</svg>
