<svg width="30" height="30" viewBox="0 0 30 30" fill="none" xmlns="http://www.w3.org/2000/svg">
<path d="M28.4681 20.547H1.53208C0.687306 20.547 0 19.86 0 19.0153V4.53171C0 3.68712 0.687306 3 1.53208 3H28.4681C29.3126 3 30 3.68712 30 4.53171V19.0153C30 19.86 29.3126 20.547 28.4681 20.547ZM1.53208 4.23729C1.36959 4.23729 1.23716 4.36935 1.23716 4.53171V19.0153C1.23716 19.1777 1.36959 19.3098 1.53208 19.3098H28.4681C28.6305 19.3098 28.7628 19.1777 28.7628 19.0153V4.53171C28.7628 4.36935 28.6306 4.23729 28.4681 4.23729H1.53208Z" fill="#556068"/>
<path d="M11.7974 16.4748C11.5942 16.3637 11.4621 16.1566 11.4621 15.9251V7.62193C11.4621 7.39038 11.5915 7.17836 11.7974 7.07213C12.0031 6.96597 12.2507 6.98366 12.4394 7.11787L18.2776 11.2694C18.441 11.3855 18.5377 11.5734 18.5377 11.7736C18.5377 11.9738 18.441 12.1617 18.2776 12.2777C18.2776 12.2777 13.8987 15.3913 12.4394 16.4292C12.3327 16.5051 12.1028 16.642 11.7974 16.4748ZM12.6995 8.82095V14.7261L16.8516 11.7736L12.6995 8.82095Z" fill="#556068"/>
<path d="M29.3814 25.5586H17.5572C17.2826 24.5068 16.3243 23.7284 15.1877 23.7284C14.0511 23.7284 13.0931 24.5068 12.8184 25.5586H0.618612C0.277041 25.5586 0 25.8357 0 26.1773C0 26.5189 0.277041 26.7959 0.618612 26.7959H12.8185C13.0932 27.8477 14.0513 28.6262 15.1877 28.6262C16.3243 28.6262 17.2826 27.8476 17.5572 26.7959H29.3814C29.7228 26.7959 30 26.519 30 26.1773C30 25.8357 29.7228 25.5586 29.3814 25.5586ZM15.1877 27.3889C14.5198 27.3889 13.9761 26.8453 13.9761 26.1772C13.9761 25.5092 14.5198 24.9657 15.1877 24.9657C15.8558 24.9657 16.3993 25.5092 16.3993 26.1772C16.3993 26.8454 15.8558 27.3889 15.1877 27.3889Z" fill="#556068"/>
</svg>
