<svg width="40" height="40" viewBox="0 0 40 40" fill="none" xmlns="http://www.w3.org/2000/svg">
<path d="M27.3045 24.4664H22.315L23.3545 21.1826C23.6724 20.2007 23.5725 19.1395 23.0761 18.2269C22.5797 17.3144 21.7264 16.6234 20.6998 16.3026C20.405 16.2102 20.0932 16.1767 19.7841 16.2041C19.475 16.2316 19.1752 16.3194 18.9035 16.4621C18.6318 16.6049 18.394 16.7994 18.205 17.0335C18.016 17.2677 17.8799 17.5364 17.8053 17.8228L17.6453 18.4613C17.0422 20.7621 15.793 22.864 14.0311 24.5424L13.1196 25.3937C12.888 25.1164 12.5939 24.8918 12.2591 24.7366C11.9243 24.5814 11.5571 24.4995 11.1846 24.4968H10.0172C9.36101 24.4967 8.73126 24.7424 8.26431 25.1806C7.79736 25.6188 7.53081 26.2143 7.5224 26.838V36.6285C7.5224 37.2575 7.78524 37.8607 8.2531 38.3055C8.72095 38.7502 9.3555 39.0001 10.0172 39.0001H11.1846C11.614 38.9992 12.0358 38.8922 12.4087 38.6896C12.7815 38.4871 13.0926 38.1959 13.3115 37.8447L13.5354 37.9511C14.9808 38.6373 16.5735 38.9963 18.1891 39.0001H23.9302C24.8793 39.0045 25.8147 38.7845 26.6521 38.3599C27.4896 37.9353 28.2029 37.3194 28.7278 36.5677C29.8451 34.9796 30.4407 33.1117 30.439 31.2012V27.4157C30.439 27.0258 30.3577 26.6398 30.1998 26.28C30.0419 25.9202 29.8105 25.5937 29.519 25.3194C29.2275 25.0451 28.8817 24.8285 28.5016 24.6821C28.1215 24.5357 27.7146 24.4624 27.3045 24.4664ZM12.0162 36.6285C12.0162 36.8543 11.9218 37.0708 11.7539 37.2305C11.5859 37.3902 11.3581 37.4798 11.1206 37.4798H10.0172C9.77964 37.4798 9.55185 37.3902 9.3839 37.2305C9.21595 37.0708 9.1216 36.8543 9.1216 36.6285V26.838C9.1216 26.6122 9.21595 26.3957 9.3839 26.236C9.55185 26.0763 9.77964 25.9866 10.0172 25.9866H11.1846C11.4108 26.002 11.6225 26.0985 11.7769 26.2565C11.9312 26.4145 12.0167 26.6224 12.0162 26.838V36.6285ZM28.8078 31.2012C28.8144 32.8235 28.3134 34.411 27.3685 35.7619C26.9904 36.2993 26.4789 36.7399 25.8793 37.0448C25.2796 37.3497 24.6102 37.5096 23.9302 37.5103H18.1891C16.8237 37.509 15.4772 37.2072 14.255 36.6285L13.6154 36.3244V26.99L15.0866 25.5914C17.0551 23.7204 18.4533 21.3772 19.1326 18.811L19.2925 18.1877C19.34 18.0209 19.455 17.8788 19.6124 17.7924C19.6931 17.7589 19.7802 17.7417 19.8682 17.7417C19.9563 17.7417 20.0434 17.7589 20.1241 17.7924C20.4393 17.892 20.7307 18.0498 20.9816 18.2565C21.2326 18.4633 21.4383 18.7151 21.5868 18.9975C21.7353 19.2799 21.8238 19.5874 21.8473 19.9023C21.8707 20.2173 21.8286 20.5335 21.7233 20.833L20.38 25.1049C20.3452 25.2182 20.3387 25.3376 20.3609 25.4537C20.3831 25.5698 20.4334 25.6794 20.5079 25.7738C20.5806 25.87 20.6768 25.948 20.7882 26.001C20.8997 26.054 21.023 26.0803 21.1476 26.0779H27.2086C27.406 26.0779 27.6015 26.1148 27.7838 26.1866C27.9662 26.2585 28.1319 26.3637 28.2715 26.4964C28.4111 26.6291 28.5218 26.7867 28.5974 26.96C28.6729 27.1334 28.7118 27.3192 28.7118 27.5069L28.8078 31.2012Z" fill="#556068"/>
<path d="M15.2145 9.81087L14.7028 12.6234C14.6412 12.9346 14.6748 13.2561 14.7995 13.5498C14.9242 13.8435 15.1348 14.097 15.4064 14.2804C15.7071 14.4935 16.071 14.6106 16.4459 14.6149C16.7354 14.6105 17.0199 14.5429 17.2775 14.4173L20.0121 13.0794L22.6828 14.4173C22.9765 14.5647 23.308 14.6301 23.6391 14.6059C23.9702 14.5816 24.2874 14.4688 24.5539 14.2804C24.8227 14.0982 25.0315 13.8472 25.1561 13.5565C25.2807 13.2658 25.3158 12.9475 25.2575 12.6386L24.8097 9.81087L26.9047 7.83453C27.1466 7.617 27.3186 7.33866 27.4007 7.03186C27.4828 6.72506 27.4716 6.40242 27.3684 6.10143C27.2651 5.80076 27.0757 5.5334 26.8215 5.32932C26.5673 5.12524 26.2583 4.99252 25.9292 4.94603L22.9387 4.53556L21.6113 1.9359C21.462 1.65448 21.2334 1.41797 20.9511 1.25273C20.6687 1.08749 20.3437 1 20.0121 1C19.6806 1 19.3555 1.08749 19.0732 1.25273C18.7908 1.41797 18.5622 1.65448 18.4129 1.9359L17.0856 4.50515L14.0951 4.91562C13.766 4.96211 13.457 5.09484 13.2028 5.29892C12.9485 5.50299 12.7591 5.77035 12.6558 6.07102C12.546 6.37618 12.5313 6.70502 12.6136 7.01791C12.6959 7.3308 12.8716 7.6144 13.1196 7.83453L15.2145 9.81087ZM14.255 6.42068L17.6613 5.9494C17.8152 5.95887 17.9686 5.92498 18.1023 5.85196C18.2359 5.77895 18.344 5.67006 18.4129 5.53893L20.0121 2.60482C20.0262 2.57571 20.0487 2.55104 20.077 2.53375C20.1054 2.51645 20.1384 2.50726 20.172 2.50726C20.2057 2.50726 20.2387 2.51645 20.2671 2.53375C20.2954 2.55104 20.3179 2.57571 20.332 2.60482L21.9312 5.53893C21.9886 5.64994 22.0743 5.7456 22.1804 5.81726C22.2865 5.88893 22.4097 5.93434 22.5389 5.9494L25.9452 6.42068C25.9783 6.4271 26.0091 6.44173 26.0343 6.46309C26.0596 6.48445 26.0785 6.51178 26.0891 6.54231C26.1045 6.56773 26.1127 6.59656 26.1127 6.62592C26.1127 6.65527 26.1045 6.68411 26.0891 6.70953L23.6263 8.98993C23.5332 9.07841 23.463 9.18631 23.4214 9.30506C23.3797 9.4238 23.3678 9.55014 23.3864 9.67405L23.9781 12.8818C23.989 12.9141 23.9868 12.9492 23.9721 12.9801C23.9573 13.011 23.931 13.0356 23.8982 13.049C23.8705 13.0688 23.8368 13.0794 23.8022 13.0794C23.7676 13.0794 23.734 13.0688 23.7063 13.049L20.6678 11.5288C20.5555 11.4688 20.4288 11.4374 20.3 11.4374C20.1712 11.4374 20.0445 11.4688 19.9322 11.5288L16.8777 13.049C16.8525 13.0675 16.8216 13.0776 16.7897 13.0776C16.7579 13.0776 16.727 13.0675 16.7018 13.049C16.669 13.0356 16.6427 13.011 16.6279 12.9801C16.6131 12.9492 16.6109 12.9141 16.6218 12.8818L17.2135 9.67405C17.2322 9.55014 17.2202 9.4238 17.1786 9.30506C17.1369 9.18631 17.0668 9.07841 16.9736 8.98993L14.5109 6.70953C14.4954 6.68411 14.4873 6.65527 14.4873 6.62592C14.4873 6.59656 14.4954 6.56773 14.5109 6.54231C14.4693 6.54454 14.4282 6.53389 14.3936 6.51196C14.3589 6.49002 14.3328 6.45799 14.319 6.42068H14.255Z" fill="#556068"/>
<path d="M9.36149 18.8564C9.5997 18.8605 9.83587 18.814 10.0527 18.7202C10.2696 18.6265 10.4617 18.4878 10.615 18.3144C10.7683 18.141 10.8788 17.9373 10.9387 17.718C10.9985 17.4988 11.006 17.2696 10.9607 17.0473L10.5289 14.7365L12.32 13.0794C12.5457 12.8825 12.7071 12.6282 12.7851 12.3466C12.8632 12.0651 12.8545 11.7681 12.7602 11.4911C12.6659 11.2141 12.4898 10.9687 12.2531 10.784C12.0163 10.5993 11.7287 10.4831 11.4245 10.4493L8.97768 10.1149L7.87423 8.0017C7.727 7.75855 7.51496 7.55659 7.25947 7.41616C7.00399 7.27572 6.71408 7.20178 6.41896 7.20178C6.12384 7.20178 5.83393 7.27572 5.57845 7.41616C5.32296 7.55659 5.11092 7.75855 4.96369 8.0017L3.86024 10.1149L1.41346 10.4493C1.10925 10.4831 0.821652 10.5993 0.584862 10.784C0.348072 10.9687 0.172051 11.2141 0.0777258 11.4911C-0.0165996 11.7681 -0.0252608 12.0651 0.0527716 12.3466C0.130804 12.6282 0.292248 12.8825 0.517908 13.0794L2.29302 14.7365L1.86124 17.0473C1.80584 17.3338 1.83818 17.6293 1.95442 17.8989C2.07066 18.1684 2.2659 18.4005 2.51691 18.5675C2.76207 18.7379 3.05319 18.8384 3.35621 18.8572C3.65923 18.8761 3.96164 18.8125 4.22805 18.674L6.41896 17.5794L8.60987 18.674C8.84086 18.7925 9.099 18.8551 9.36149 18.8564ZM6.41896 15.9679C6.29007 15.9671 6.16323 15.9986 6.05114 16.0591L3.44445 17.3057L4.02016 14.5996C4.02906 14.4695 4.0046 14.3393 3.94889 14.2201C3.89318 14.101 3.80788 13.9964 3.70032 13.9155L1.63735 11.9544L4.51591 11.5591C4.64318 11.5444 4.76435 11.4989 4.86792 11.427C4.97149 11.3552 5.054 11.2594 5.10761 11.1486L6.43495 8.67061L7.7303 11.1486C7.78392 11.2594 7.86643 11.3552 7.97 11.427C8.07357 11.4989 8.19474 11.5444 8.32201 11.5591L11.2006 12L9.1376 13.9155C9.04447 14.004 8.9743 14.1119 8.93266 14.2306C8.89102 14.3494 8.87906 14.4757 8.89772 14.5996L9.36149 17.3361L6.78678 16.0591C6.67469 15.9986 6.54785 15.9671 6.41896 15.9679Z" fill="#556068"/>
<path d="M39.9222 11.4983C39.8309 11.2232 39.659 10.9785 39.4268 10.7927C39.1946 10.607 38.9116 10.4879 38.6109 10.4493L36.1641 10.1149L35.0606 8.0017C34.9134 7.75855 34.7014 7.55659 34.4459 7.41616C34.1904 7.27572 33.9005 7.20178 33.6054 7.20178C33.3102 7.20178 33.0203 7.27572 32.7648 7.41616C32.5094 7.55659 32.2973 7.75855 32.1501 8.0017L31.0466 10.1149L28.5999 10.4493C28.2957 10.4831 28.0081 10.5993 27.7713 10.784C27.5345 10.9687 27.3585 11.2141 27.2641 11.4911C27.1698 11.7681 27.1611 12.0651 27.2392 12.3466C27.3172 12.6282 27.4786 12.8825 27.7043 13.0794L29.4794 14.7365L29.0476 17.0473C28.9922 17.3338 29.0246 17.6293 29.1408 17.8989C29.2571 18.1684 29.4523 18.4005 29.7033 18.5675C29.9485 18.7379 30.2396 18.8384 30.5426 18.8572C30.8456 18.8761 31.148 18.8125 31.4145 18.674L33.6054 17.5794L35.7963 18.674C36.0273 18.7925 36.2854 18.8551 36.5479 18.8564C36.7861 18.8605 37.0223 18.814 37.2391 18.7202C37.456 18.6265 37.6481 18.4878 37.8014 18.3144C37.9547 18.141 38.0652 17.9373 38.1251 17.718C38.1849 17.4988 38.1924 17.2696 38.1471 17.0473L37.7153 14.7365L39.4904 13.0794C39.7132 12.8822 39.8722 12.6287 39.9487 12.3487C40.0251 12.0686 40.016 11.7736 39.9222 11.4983ZM36.324 13.9155C36.2309 14.004 36.1607 14.1119 36.1191 14.2306C36.0774 14.3494 36.0655 14.4757 36.0841 14.5996L36.5479 17.3361L33.9732 16.0591C33.8608 15.9992 33.7342 15.9677 33.6054 15.9677C33.4765 15.9677 33.3499 15.9992 33.2375 16.0591L30.6308 17.3057L31.2066 14.5996C31.2155 14.4695 31.191 14.3393 31.1353 14.2201C31.0796 14.101 30.9943 13.9964 30.8867 13.9155L28.8238 11.9544L31.7023 11.5591C31.8296 11.5444 31.9508 11.4989 32.0543 11.427C32.1579 11.3552 32.2404 11.2594 32.294 11.1486L33.6214 8.67061L34.9167 11.1486C34.9703 11.2594 35.0528 11.3552 35.1564 11.427C35.26 11.4989 35.3811 11.5444 35.5084 11.5591L38.387 12L36.324 13.9155Z" fill="#556068"/>
</svg>
