<svg width="30" height="30" viewBox="0 0 30 30" fill="none" xmlns="http://www.w3.org/2000/svg">
<g clip-path="url(#clip0_258_2695)">
<path d="M15 30C23.2843 30 30 23.2843 30 15C30 6.71573 23.2843 0 15 0C6.71573 0 0 6.71573 0 15C0 23.2843 6.71573 30 15 30Z" fill="#F0F0F0"/>
<path d="M30.0004 15C30.0004 8.55053 25.9298 3.05239 20.2178 0.932991V29.0671C25.9298 26.9476 30.0004 21.4495 30.0004 15V15Z" fill="#D80027"/>
<path d="M0 15C0 21.4495 4.07063 26.9476 9.78264 29.067V0.932991C4.07063 3.05239 0 8.55053 0 15Z" fill="#6DA544"/>
</g>
<defs>
<clipPath id="clip0_258_2695">
<rect width="30" height="30" fill="white"/>
</clipPath>
</defs>
</svg>
