<svg width="12" height="10" viewBox="0 0 12 10" fill="none" xmlns="http://www.w3.org/2000/svg">
<path d="M10.9453 0.78125H1.05469C0.474328 0.78125 0 1.25349 0 1.83594V8.16406C0 8.74672 0.474633 9.21875 1.05469 9.21875H10.9453C11.5257 9.21875 12 8.74651 12 8.16406V1.83594C12 1.25335 11.5254 0.78125 10.9453 0.78125ZM10.7834 1.48438C10.4424 1.82649 6.43699 5.84492 6.27244 6.01002C6.135 6.14787 5.86507 6.14797 5.72756 6.01002L1.21664 1.48438H10.7834ZM0.703125 8.0348V1.9652L3.72809 5L0.703125 8.0348ZM1.21664 8.51562L4.22447 5.498L5.22959 6.5064C5.64148 6.91963 6.35869 6.91946 6.77044 6.5064L7.77555 5.49802L10.7834 8.51562H1.21664ZM11.2969 8.0348L8.27191 5L11.2969 1.9652V8.0348Z" fill="#E9ECEF"/>
</svg>
