<?xml version="1.0" encoding="UTF-8"?>
<svg version="1.1" xmlns="http://www.w3.org/2000/svg" width="225" height="225">
<path d="M0 0 C3.05680636 2.63241982 5.84312035 5.45093279 8.609375 8.38671875 C9.73279297 9.57394531 9.73279297 9.57394531 10.87890625 10.78515625 C23.58447655 25.40992359 27.88583412 44.03899866 26.82080078 63.02636719 C24.80512641 85.52929996 11.0968338 101.43420832 -3.1640625 117.6953125 C-6.13269002 121.0811001 -9.05270919 124.50494208 -11.953125 127.94921875 C-15.27316771 131.88968877 -18.61101268 135.81347773 -21.97241211 139.71875 C-28.94024502 147.81426731 -35.72491471 156.03970207 -42.390625 164.38671875 C-45.25326298 164.04805845 -46.29738786 163.48352748 -48.328125 161.375 C-49.00875 160.49199219 -49.689375 159.60898438 -50.390625 158.69921875 C-51.57205078 157.20261719 -51.57205078 157.20261719 -52.77734375 155.67578125 C-53.19935059 155.13985352 -53.62135742 154.60392578 -54.05615234 154.05175781 C-56.36869769 151.16636461 -58.78754217 148.37339536 -61.203125 145.57421875 C-61.70690674 144.98833984 -62.21068848 144.40246094 -62.72973633 143.79882812 C-64.28216734 141.99375573 -65.83616692 140.19004567 -67.390625 138.38671875 C-73.69869423 131.06872724 -79.97053409 123.73880949 -86.04296875 116.22265625 C-87.77601674 114.12915735 -89.52927424 112.08243219 -91.33203125 110.05078125 C-100.5871783 99.59217404 -108.46774318 89.03421814 -112.390625 75.38671875 C-112.61492187 74.64808594 -112.83921875 73.90945312 -113.0703125 73.1484375 C-117.98083634 53.67451077 -113.36843834 34.30561963 -103.390625 17.38671875 C-101.26698594 14.15509409 -98.98404733 11.25100964 -96.390625 8.38671875 C-95.81054688 7.71511719 -95.23046875 7.04351562 -94.6328125 6.3515625 C-70.71169433 -19.62136706 -27.26271932 -21.97594052 0 0 Z M-95.703125 15.19921875 C-106.19800143 29.17092541 -111.13259616 45.9849656 -109.390625 63.38671875 C-106.863109 80.25757676 -99.30974278 93.19824655 -87.984375 105.62353516 C-85.33260755 108.55721538 -82.77076814 111.56698392 -80.203125 114.57421875 C-79.70006836 115.16017822 -79.19701172 115.7461377 -78.67871094 116.34985352 C-75.72003677 119.80212444 -72.816484 123.29204597 -69.953125 126.82421875 C-66.33635715 131.28270712 -62.60217097 135.62431946 -58.828125 139.94921875 C-53.85751981 145.64557558 -49.03704171 151.42077585 -44.390625 157.38671875 C-40.46227565 153.55983968 -36.83900017 149.54499421 -33.265625 145.38671875 C-32.697229 144.72808838 -32.12883301 144.06945801 -31.54321289 143.39086914 C-27.49823846 138.69590022 -23.48399146 133.97539461 -19.49023438 129.23681641 C-16.61526551 125.82670275 -13.7191973 122.43579603 -10.80932617 119.05541992 C-5.23565845 112.5791054 0.26064548 106.05123573 5.609375 99.38671875 C6.15078125 98.73832031 6.6921875 98.08992188 7.25 97.421875 C18.59220521 83.3038143 23.22680995 66.36023743 21.609375 48.38671875 C18.75935292 29.70624229 9.83776585 14.18596336 -5.31298828 2.81958008 C-34.53120281 -18.02465873 -72.8261469 -11.83720992 -95.703125 15.19921875 Z " fill="#404040" transform="translate(156.390625,27.61328125)"/>
<path d="M0 0 C0.495 1.485 0.495 1.485 1 3 C0.38068604 3.15557373 -0.23862793 3.31114746 -0.87670898 3.47143555 C-3.73379539 4.19709129 -6.58549064 4.94215059 -9.4375 5.6875 C-10.41138672 5.93177734 -11.38527344 6.17605469 -12.38867188 6.42773438 C-19.54673636 8.31899556 -26.65572454 10.65572454 -32 16 C-32.30025049 18.4413266 -32.30025049 18.4413266 -31 21 C-11.39313443 37.00560455 23.35612172 35.57703811 47.09790039 33.22558594 C61.46873877 31.59488472 75.34660166 28.94083878 87 20 C87.12213894 17.65851769 87.12213894 17.65851769 86 15 C77.20198983 7.81795088 64.82757368 5.64647169 54 3 C54.8125 1.0625 54.8125 1.0625 56 -1 C63.92205678 -3.64068559 75.54220712 1.89404728 82.75 5.4375 C87.27224963 7.70388324 90.18738824 9.75442253 93 14 C93.63876886 17.44935187 93.71157698 19.69914832 92 22.828125 C82.95026766 34.65447977 65.05168133 37.27142382 51.2043457 39.12402344 C25.10114481 42.13668692 -8.75779504 42.6339809 -32 28 C-35.73863302 24.77118057 -37.7561269 22.28587636 -38.6875 17.375 C-37.57167738 11.89732531 -33.99670992 9.57356025 -29.625 6.5 C-22.80649528 2.38807731 -7.14285459 -5.2910034 0 0 Z " fill="#3F3F3F" transform="translate(85,172)"/>
<path d="M0 0 C7.02566628 5.68355395 12.27703836 13.2697328 13.6015625 22.33984375 C14.45675642 32.12523577 12.63202175 40.77259839 6.33203125 48.45703125 C-1.26861219 56.72680583 -8.16979145 60.66214422 -19.46484375 61.3984375 C-29.82877347 61.19143491 -37.12654151 57.56922445 -44.3359375 50.41796875 C-51.06474904 43.18449634 -53.77311947 35.67066632 -53.609375 25.796875 C-52.8244795 16.65429596 -48.91687007 8.64908963 -42.2890625 2.328125 C-29.89912452 -7.86153089 -13.51947074 -9.35793984 0 0 Z M-42.796875 10.12109375 C-47.61069625 17.13313395 -49.14169467 24.38066629 -47.9921875 32.79296875 C-46.0126385 41.28419207 -41.58896412 47.48320288 -34.3984375 52.33984375 C-27.7707573 56.36533281 -19.90190105 56.21763926 -12.3984375 55.33984375 C-3.54095073 52.74389105 2.0259927 46.89001707 6.4765625 39.02734375 C9.11038517 30.39425833 9.38567549 22.65384382 5.6015625 14.33984375 C1.46033089 7.00909214 -4.06237228 2.99543229 -11.8359375 0.02734375 C-23.50475422 -2.22453316 -35.20393577 0.44964043 -42.796875 10.12109375 Z " fill="#404040" transform="translate(132.3984375,53.66015625)"/>
<path d="M0 0 C12.11338169 0.87717592 24.6190338 5.14317247 34 13 C36.53604144 16.80406216 36.60198813 18.48508904 36 23 C32.56307658 29.35966145 26.54091265 32.49704987 20 35 C16.99638765 35.85183689 14.08056209 36.45344866 11 37 C11.99 36.505 11.99 36.505 13 36 C13 35.01 13 34.02 13 33 C11.68 32.67 10.36 32.34 9 32 C10.09699219 31.61328125 11.19398438 31.2265625 12.32421875 30.828125 C13.77882847 30.30258858 15.2332455 29.7765186 16.6875 29.25 C17.40873047 28.99734375 18.12996094 28.7446875 18.87304688 28.484375 C23.22790366 26.89355974 26.51195282 25.16469764 30 22 C30.12213894 19.65851769 30.12213894 19.65851769 29 17 C20.20198983 9.81795088 7.82757368 7.64647169 -3 5 C-1.125 1.125 -1.125 1.125 0 0 Z " fill="#414141" transform="translate(142,170)"/>
<path d="M0 0 C0.66 0.33 1.32 0.66 2 1 C-1.96 4.96 -5.92 8.92 -10 13 C-10 8.41771462 -7.08388033 6.1816619 -4 3 C-1.625 1.0625 -1.625 1.0625 0 0 Z " fill="#6B6B6B" transform="translate(95,52)"/>
<path d="M0 0 C2.69082872 0.17635452 5.32851446 0.61835921 8 1 C8 1.33 8 1.66 8 2 C5.69 2.33 3.38 2.66 1 3 C1 3.66 1 4.32 1 5 C-0.32 5 -1.64 5 -3 5 C-1.125 1.125 -1.125 1.125 0 0 Z " fill="#8D8D8D" transform="translate(142,170)"/>
<path d="M0 0 C0.66 0.33 1.32 0.66 2 1 C0.7934375 2.051875 0.7934375 2.051875 -0.4375 3.125 C-3.23433811 6.26291593 -3.71308751 7.88758763 -4 12 C-4.33 12 -4.66 12 -5 12 C-5.3125 8.8125 -5.3125 8.8125 -5 5 C-2.5 2.0625 -2.5 2.0625 0 0 Z " fill="#818181" transform="translate(52,181)"/>
</svg>
