<svg width="12" height="12" viewBox="0 0 12 12" fill="none" xmlns="http://www.w3.org/2000/svg">
<path d="M10.8511 12C10.8206 12 10.7906 11.999 10.7601 11.9965C5.04058 11.5535 0.41608 6.9315 0.00308047 1.2455C-0.00841776 1.08811 0.0123487 0.930022 0.064107 0.780937C0.115865 0.631853 0.197525 0.494909 0.30408 0.3785C0.408068 0.264848 0.534496 0.173998 0.675379 0.111689C0.816261 0.0493808 0.968535 0.0169685 1.12258 0.0165L3.47358 0C3.99558 0 4.44708 0.3505 4.57308 0.852L5.06408 2.8025C5.11858 3.01788 5.10779 3.24459 5.03309 3.45382C4.95839 3.66305 4.82316 3.84534 4.64458 3.9775L3.70008 4.681C4.52879 6.18979 5.76659 7.434 7.27108 8.2705L8.00108 7.3035C8.13474 7.12611 8.31772 6.99205 8.52714 6.91806C8.73657 6.84407 8.96315 6.83344 9.17858 6.8875L11.1426 7.375C11.3872 7.43487 11.6046 7.57506 11.76 7.77313C11.9155 7.9712 12 8.2157 12.0001 8.4675V10.8745C12.0001 11.1885 11.8731 11.479 11.6421 11.693C11.4262 11.8909 11.1439 12.0004 10.8511 12ZM3.47608 0.75L1.12808 0.767C1.07675 0.767058 1.026 0.777752 0.979011 0.798405C0.932025 0.819059 0.889827 0.849224 0.85508 0.887C0.817875 0.927864 0.789448 0.975927 0.77156 1.02822C0.753671 1.08051 0.746701 1.13591 0.75108 1.191C1.13708 6.51 5.46508 10.834 10.8176 11.2485C10.8745 11.2535 10.9319 11.2467 10.986 11.2283C11.0402 11.21 11.0899 11.1806 11.1321 11.142C11.1693 11.108 11.1989 11.0666 11.2192 11.0204C11.2394 10.9743 11.2498 10.9244 11.2496 10.874V8.467C11.2493 8.38279 11.2207 8.30111 11.1685 8.23504C11.1163 8.16896 11.0434 8.12229 10.9616 8.1025L8.99758 7.615C8.92476 7.59629 8.84802 7.59961 8.77709 7.62453C8.70615 7.64945 8.6442 7.69486 8.59908 7.755L7.67558 8.9775C7.62232 9.04774 7.54608 9.09703 7.46018 9.11677C7.37427 9.13651 7.28416 9.12544 7.20558 9.0855C5.34258 8.133 3.80758 6.589 2.88358 4.738C2.84453 4.6593 2.83435 4.56938 2.85482 4.48394C2.87528 4.3985 2.9251 4.32296 2.99558 4.2705L4.19658 3.376C4.25601 3.33225 4.30107 3.27179 4.32601 3.20233C4.35094 3.13287 4.35462 3.05756 4.33658 2.986L3.84558 1.035C3.82469 0.953041 3.77695 0.880441 3.70998 0.828784C3.643 0.777127 3.56066 0.74939 3.47608 0.75Z" fill="#E9ECEF"/>
</svg>
